<?xml version="1.0" encoding="UTF-8"?>
<svg width="80px" height="80px" viewBox="0 0 40 40" version="1.1" xmlns="http://www.w3.org/2000/svg" xmlns:xlink="http://www.w3.org/1999/xlink">
    <!-- Generator: Sketch 52.2 (67145) - http://www.bohemiancoding.com/sketch -->
    <title>ic/flavis/navi/products-02</title>
    <desc>Created with Sketch.</desc>
    <g id="ic/flavis/navi/products-02" stroke="none" stroke-width="1" fill="none" fill-rule="evenodd">
        <rect id="Rectangle-4" fill="#D8D8D8" opacity="0" x="0" y="0" width="40" height="40"></rect>
        <g id="Group-22" transform="translate(6.000000, 8.000000)" stroke="#FFFFFF" stroke-linecap="round">
            <path d="M8.418,16.5283 C8.418,16.5283 7.657,13.3413 11.366,13.2943 C15.076,13.2463 18.405,13.3893 19.642,13.2943 C20.878,13.1993 23.636,12.5703 24.064,14.9063 C24.492,17.2413 24.017,20.4273 24.064,21.2363 C24.111,22.0443 24.064,23.3763 22.066,23.4713 C20.069,23.5663 14.695,23.3763 13.411,23.4713 C12.128,23.5663 9.179,23.4713 8.703,22.4723 C8.228,21.4743 8.461,17.5523 8.418,16.5283 Z" id="Stroke-18" stroke-linejoin="round"></path>
            <path d="M9.8564,16.6089 C9.8564,16.6089 9.2744,21.1399 10.3494,21.7009 C11.4244,22.2619 20.7014,22.2619 21.3284,22.1329 C21.9564,22.0039 22.9414,21.8739 22.8074,19.8889 C22.6724,17.9029 23.0764,15.7029 22.5384,15.0549 C22.0014,14.4079 19.6004,14.3649 16.2964,14.5809" id="Stroke-20" stroke-width="0.75" stroke-linejoin="round"></path>
            <path d="M8.23217773,21.6782227 L4.28930664,22.8408203 L1.38476562,22.1746415 C0.846354167,15.0450302 0.711751302,10.6534831 0.980957031,9 C1.25016276,7.34651693 1.84399414,5.18139633 2.76245117,2.50463821 L11.0625,0.25 C12.6235441,2.99609375 13.4040662,5.14095052 13.4040662,6.68457031 C13.4040662,8.2281901 13.4952441,10.4072266 13.6776,13.2216797" id="Path-2" stroke-linejoin="round"></path>
            <path d="M4.93481445,21.0700684 C5.67993164,15.0501506 5.86621094,11.2610728 5.49365234,9.70283508 C5.12109375,8.14459737 4.33837891,5.74519841 3.14550781,2.50463821" id="Path-3" stroke-width="0.75" stroke-linejoin="round"></path>
            <path d="M4.80334473,3.50463821 L11.8672,1.56088346" id="Path" stroke-width="0.75"></path>
            <path d="M19.4414,4.9106 C19.4414,4.9106 20.9184,5.3066 23.5824,4.9106 L23.5824,2.6066 C23.5824,2.6066 22.2504,1.9946 19.4414,2.4626 L19.4414,4.9106 Z" id="Stroke-10" stroke-linejoin="round"></path>
            <path d="M24.3366699,19.7922363 C24.5894233,19.7922363 25.0938,19.5281576 25.8498,19 L25.8498,5.5588 C25.8498,5.5588 25.5258,4.4788 23.5818,4.4428" id="Stroke-12" stroke-linejoin="round"></path>
            <path d="M19.4414,4.4424 C19.4414,4.4424 16.9934,4.6944 16.9934,5.5584 C16.9934,5.8024 16.8924,8.81764987 16.9934,13.1466499" id="Stroke-14" stroke-linejoin="round"></path>
            <path d="M16.9931958,5.5586 C16.9931958,5.5586 16.9572,6.6386 23.5822,6.2786" id="Stroke-16" stroke-width="0.75" stroke-linejoin="round"></path>
        </g>
    </g>
</svg>