<?xml version="1.0" encoding="UTF-8"?>
<svg width="80px" height="80px" viewBox="0 0 40 40" version="1.1" xmlns="http://www.w3.org/2000/svg" xmlns:xlink="http://www.w3.org/1999/xlink">
    <!-- Generator: Sketch 52.2 (67145) - http://www.bohemiancoding.com/sketch -->
    <title>ic/kanso/navi/darm</title>
    <desc>Created with Sketch.</desc>
    <g id="ic/kanso/navi/darm" stroke-width="1" fill="none" fill-rule="evenodd">
        <path d="M18.6637852,7 C18.2716566,9.38447973 18.6848368,10.7200526 19.9033258,11.0067186 C21.7310593,11.4367176 20.9198449,9.58323642 23.7609711,9.58323642 C26.6020973,9.58323642 28.7952108,12.0492004 28.7952108,14.8657207 C28.7952108,17.682241 28.6113744,19.7457677 26.0318294,22.2072282 C23.4522844,24.6686886 17.00634,24.821449 15.2738596,22.9993126 C13.5413791,21.1771761 13.0008098,21.1771761 12.3647848,21.6473468 C11.7287598,22.1175174 11.8088987,24.7117425 13.5413791,24.7117425 C14.6963661,24.7117425 18.5276536,24.7117425 25.0352417,24.7117425 C27.2120847,24.7117425 28.3005062,25.6366988 28.3005062,27.4866114 C28.3005062,30.2614803 25.6663068,29.8943155 24.2629393,29.8943155 C23.7674738,29.8943155 20.2316374,29.8943155 19.9033258,29.8943155 C19.5750142,29.8943155 21.7310593,30.9904121 21.7310593,32.4387539 C21.7310593,33.404315 21.7310593,34.0250244 21.7310593,34.3008818" id="Path-20" stroke-linecap="round" stroke-linejoin="round"></path>
        <path d="M23.2119867,11.375 L23.1871875,11.374919 C22.9648876,11.3795405 22.7589832,11.4685465 22.6056966,11.6265211 C22.4517816,11.7837673 22.370606,11.9878619 22.3752038,12.2055445 C22.3829677,12.6272045 22.7648781,13.0090058 23.1586796,13.0092327 L23.2487737,13.007774 C23.6876829,13.0340471 24.1481919,13.1710053 24.4958381,13.5342134 C24.8649932,13.9188981 25.0119857,14.5099114 24.9638446,15.2794069 C24.9363615,15.7266391 25.2820677,16.1159545 25.7278338,16.143813 L25.7629245,16.1461558 L25.7888077,16.1461558 C26.2259409,16.1461558 26.5872394,15.8090874 26.6128493,15.3811558 C26.6928359,14.1125299 26.3786771,13.1188931 25.6858682,12.4025856 C24.9569253,11.6478 24.0082657,11.375 23.2119867,11.375 Z" id="Fill-6" stroke-width="0.75"></path>
        <path d="M16.5988173,7 C16.6029931,9.75727033 16.845452,11.4171292 17.3261941,11.9795767 C18.0473072,12.8232479 20.5063575,13.3061981 20.5063575,15.326778 C20.5063575,17.3473579 19.4992201,18.8678103 17.6812585,19.2272656 C15.8632969,19.5867209 15.0448175,17.6421498 12.7767468,18.2982012 C10.5086761,18.9542527 10.1977584,20.1736417 10.0212507,22.5033816 C9.84474305,24.8331216 10.7914541,25.6486453 11.9815191,26.49087 C13.171584,27.3330947 13.3273262,27.3792532 12.7767468,27.3792532 C12.2261674,27.3792532 10.8956649,28.0955771 10.8956649,29.8066059 C10.8956649,31.5176348 11.8375604,32.1658476 14.0194594,32.1658476 C16.2013584,32.1658476 19.2704331,31.7804691 19.6515106,32.5874354 C19.9055623,33.1254129 20.0325882,33.6965617 20.0325882,34.3008818" id="Path-18" stroke-linecap="round" stroke-linejoin="round"></path>
        <path d="M12,27.6240868 C13.9662128,27.3509447 16.1494059,27.2826592 18.5495793,27.4192302 C20.9497526,27.5558013 23.3116324,27.6240868 25.6352188,27.6240868" id="Path-21" stroke-width="0.75" stroke-linecap="round"></path>
        <path d="M20.0764443,29.727788 C18.4783512,29.8418432 17.2240898,29.8235138 16.3136598,29.6727997 C15.0634631,29.46584 13.2588345,29.6317785 13,29.727788" id="Path-22" stroke-width="0.75" stroke-linecap="round"></path>
    </g>
</svg>