<?xml version="1.0" encoding="UTF-8"?>
<svg width="80px" height="80px" viewBox="0 0 80 80" version="1.1" xmlns="http://www.w3.org/2000/svg" xmlns:xlink="http://www.w3.org/1999/xlink">
    <!-- Generator: Sketch 50.2 (55047) - http://www.bohemiancoding.com/sketch -->
    <title>kanso/category/ketogene-diaet/white</title>
    <desc>Created with Sketch.</desc>
    <defs></defs>
    <g id="Website-V03" stroke="none" stroke-width="1" fill="none" fill-rule="evenodd">
        <g id="icons-kanso-&amp;-flavis" transform="translate(-696.000000, -708.000000)">
            <g id="cat3_white" transform="translate(696.000000, 708.000000)">
                <g id="ic/navi/03">
                    <rect id="Rectangle-4" fill="#D8D8D8" opacity="0" x="0" y="0" width="80" height="80"></rect>
                    <g id="Group-46" stroke-width="1" transform="translate(10.000000, 10.000000)">
                        <path d="M31,9.167 C31,9.167 28.5,4.667 23.666,6.833 C23.666,6.833 19.5,6.833 19.166,10.001 C18.834,13.167 21.166,13.667 21.166,13.667 C21.166,13.667 20.666,18.501 26.334,18.001 C26.334,18.001 26,24.167 32.334,22.501" id="Stroke-2"  stroke-width="2" stroke-linecap="round"></path>
                        <path d="M25.7344,12.333 C25.7344,12.333 32.3344,10.499 32.3344,16.499 C32.3344,16.499 40.3344,16.667 37.1664,23.499 C37.1664,23.499 40.0004,28.333 36.3344,30.167 C32.6664,31.999 30.0004,29.833 29.1664,26.999" id="Stroke-4"  stroke-width="2" stroke-linecap="round"></path>
                        <path d="M35.5,11.5 C35.5,11.5 39.626,11.75 39.75,15.124 C39.75,15.124 44.374,16.876 41.25,20.374 C41.25,20.374 43.796,25.374 38.21,26.5" id="Stroke-6"  stroke-width="2" stroke-linecap="round"></path>
                        <path d="M36.125,8.375 C36.125,8.375 40.125,5.251 43.375,8.375 C46.625,11.499 44.499,14.515 44.499,14.515" id="Stroke-8"  stroke-width="2" stroke-linecap="round"></path>
                        <path d="M14.375,12.0694 C14.375,12.0694 13.001,16.3754 18.125,17.3754" id="Stroke-10"  stroke-width="2" stroke-linecap="round"></path>
                        <path d="M23.75,22.7862 C23.75,22.7862 20.876,25.6242 17.5,23.5002 C14.126,21.3742 15.774,16.4342 15.774,16.4342" id="Stroke-12"  stroke-width="2" stroke-linecap="round"></path>
                        <path d="M30,29.375 C30,29.375 24.292,31.129 21.708,24.001" id="Stroke-14"  stroke-width="2" stroke-linecap="round"></path>
                        <path d="M38.211,28.375 C38.211,28.375 40.875,30.881 43.251,29.565 C45.625,28.251 45.001,25.751 44.501,24.875" id="Stroke-16"  stroke-width="2" stroke-linecap="round"></path>
                        <path d="M46,21.457 C46,21.457 49.124,19.749 49,17.375 C48.874,14.999 45.18,12.069 45.18,12.069" id="Stroke-18"  stroke-width="2" stroke-linecap="round"></path>
                        <path d="M48.1836,19.6064 C48.1836,19.6064 51.9896,24.8224 45.1816,27.4104" id="Stroke-20"  stroke-width="2" stroke-linecap="round"></path>
                        <path d="M15.371,20.3624 C15.371,20.3624 9.125,20.8744 8.375,17.3744 C7.625,13.8744 11.125,12.7504 11.125,12.7504" id="Stroke-22"  stroke-width="2" stroke-linecap="round"></path>
                        <path d="M15.371,8 C15.371,8 11.999,5.75 9.625,8.624 C7.249,11.5 9.237,13.986 9.237,13.986" id="Stroke-24"  stroke-width="2" stroke-linecap="round"></path>
                        <path d="M23.666,6.833 C23.666,6.833 20.374,3.125 17.124,3.499 C13.874,3.875 12.624,7.163 12.624,7.163" id="Stroke-26"  stroke-width="2" stroke-linecap="round"></path>
                        <path d="M29.1054,7.1622 C29.1054,7.1622 30.2174,2.5002 25.7334,1.8742 C21.2494,1.2502 20.8394,4.5182 20.8394,4.5182" id="Stroke-28"  stroke-width="2" stroke-linecap="round"></path>
                        <path d="M38.211,7.3056 C38.211,7.3056 36.045,-0.2924 29.023,4.4776" id="Stroke-30"  stroke-width="2" stroke-linecap="round"></path>
                        <path d="M9.3614,19 C9.3614,19 8.2494,25.072 11.2494,27.412 C14.2494,29.75 17.8754,29.854 23.7494,27.49" id="Stroke-32"  stroke-width="2" stroke-linecap="round"></path>
                        <path d="M15.371,29.1396 C15.371,29.1396 13.663,34.1256 14.207,35.1256 C14.749,36.1256 15.661,36.1256 16.455,35.1256 C17.249,34.1256 17.947,29.4916 24.349,28.0576" id="Stroke-34"  stroke-width="1.5" stroke-linecap="round"></path>
                        <path d="M40.125,51.5 C40.125,51.5 37.751,56.626 35.499,57.626 C33.249,58.626 29.001,62 27.875,62 C26.751,62 25.967,61.25 25.735,58.376 C25.501,55.5 23.499,51.624 22.999,49.126 C22.499,46.624 22.841,40 25.735,38.626 C28.625,37.25 33.833,35.876 38.917,36.5 C43.999,37.126 58.001,36.626 58.751,39.5 C59.501,42.376 57.875,46.344 54.125,49.172 C50.375,52 42.875,55 40.125,51.5 Z" id="Stroke-36"  stroke-width="2" stroke-linecap="round"></path>
                        <path d="M42.875,45.875 C42.875,45.875 39.375,46.875 40.125,51.501" id="Stroke-38"  stroke-width="1.5" stroke-linecap="round"></path>
                        <path d="M31.8418,39.3184 C31.4218,39.3184 29.2538,39.4024 27.6438,41.0804 C26.4678,42.3084 25.9378,43.9824 26.0658,46.0544 C26.1338,47.1964 27.0878,48.0944 28.2358,48.0944 L28.2878,48.0944 L28.3838,48.0884 C29.5678,48.0144 30.4798,46.9804 30.4058,45.7844 C30.3718,45.2304 30.4078,44.4844 30.7818,44.0944 C31.0818,43.7764 31.6038,43.6824 31.8238,43.6664 L31.8978,43.6684 C33.0318,43.6684 34.0078,42.6924 34.0318,41.5324 C34.0518,40.3344 33.0958,39.3424 31.8958,39.3184 L31.8838,39.3184 L31.8418,39.3184 Z M31.8418,40.8184 L31.8678,40.8184 C32.2418,40.8244 32.5398,41.1324 32.5318,41.5044 C32.5238,41.8564 32.1998,42.1684 31.8978,42.1684 C31.8818,42.1684 31.8638,42.1684 31.8458,42.1644 C31.7998,42.1644 30.5318,42.1784 29.6958,43.0604 C29.0958,43.6904 28.8318,44.6384 28.9098,45.8784 C28.9318,46.2504 28.6498,46.5684 28.2778,46.5924 C28.2638,46.5944 28.2498,46.5944 28.2358,46.5944 C27.8818,46.5944 27.5838,46.3184 27.5618,45.9624 C27.4618,44.3244 27.8538,43.0304 28.7278,42.1184 C29.9218,40.8724 31.6018,40.8184 31.8418,40.8184 Z" id="Fill-40" fill="#FFFFFF"></path>
                        <path d="M28.6992,48.4472 C27.5092,48.4472 26.5432,49.4132 26.5432,50.6032 C26.5432,51.7912 27.5092,52.7592 28.6992,52.7592 C29.8892,52.7592 30.8552,51.7912 30.8552,50.6032 C30.8552,49.4132 29.8892,48.4472 28.6992,48.4472 M28.6992,49.9472 C29.0632,49.9472 29.3552,50.2392 29.3552,50.6032 C29.3552,50.9652 29.0632,51.2592 28.6992,51.2592 C28.3352,51.2592 28.0432,50.9652 28.0432,50.6032 C28.0432,50.2392 28.3352,49.9472 28.6992,49.9472" id="Fill-42" fill="#FFFFFF"></path>
                        <path d="M7.25,38.25 C7.25,38.25 9.812,42.688 11.124,42.062 C12.438,41.438 10.062,38.374 9.688,37.312 C9.312,36.25 8.812,33.438 7.938,33.188 C7.062,32.938 0.374,38.312 0.312,39.188 C0.25,40.062 1.188,40.438 2.062,40.124 C2.938,39.812 4.812,38.938 4.376,39.874 C3.938,40.812 2.374,45.75 4,49.438 C5.626,53.124 9.062,56.25 13,56.688 C16.938,57.126 16.27,55.188 16.166,54.938 C16.062,54.688 14.828,53.688 11.82,53.374 C8.812,53.062 5.876,49.688 5.562,47.5 C5.25,45.312 6.126,39.25 7.25,38.25 Z" id="Stroke-44"  stroke-width="1.5" stroke-linecap="round" stroke-linejoin="round"></path>
                    </g>
                </g>
            </g>
        </g>
    </g>
</svg>