<?xml version="1.0" encoding="UTF-8"?>
<svg width="80px" height="80px" viewBox="0 0 80 80" version="1.1" xmlns="http://www.w3.org/2000/svg" xmlns:xlink="http://www.w3.org/1999/xlink">
    <!-- Generator: Sketch 50.2 (55047) - http://www.bohemiancoding.com/sketch -->
    <title>kanso/category/oxidationsstoerung/white</title>
    <desc>Created with Sketch.</desc>
    <defs></defs>
    <g id="Website-V03" stroke="none" stroke-width="1" fill="none" fill-rule="evenodd">
        <g id="icons-kanso-&amp;-flavis" transform="translate(-696.000000, -609.000000)">
            <g id="cat2_white" transform="translate(696.000000, 609.000000)">
                <g id="ic/navi/02">
                    <rect id="Rectangle-4" fill="#D8D8D8" opacity="0" x="0" y="0" width="80" height="80"></rect>
                    <g id="Group-10" stroke-width="1" transform="translate(14.000000, 24.000000)">
                        <path d="M26.8906,23.3458 C26.8906,23.3458 23.3486,30.9858 19.9966,32.4778 C16.6406,33.9678 10.3046,38.9998 8.6266,38.9998 C6.9486,38.9998 5.7826,37.8818 5.4326,33.5958 C5.0866,29.3078 2.1026,23.5318 1.3586,19.8038 C0.6126,16.0778 1.1226,6.1998 5.4326,4.1498 C9.7466,2.0998 17.5126,0.0498 25.0906,0.9818 C32.6686,1.9138 53.5406,1.1678 54.6606,5.4538 C55.7766,9.7398 53.3546,15.6598 47.7646,19.8758 C42.1746,24.0918 30.9906,28.5638 26.8906,23.3458 Z" id="Stroke-2"  stroke-width="2" stroke-linecap="round"></path>
                        <path d="M30.9902,14.959 C30.9902,14.959 25.7742,16.451 26.8902,23.345" id="Stroke-4"  stroke-width="1.5" stroke-linecap="round"></path>
                        <path d="M14.541,5.919 C13.969,5.919 11.007,6.035 8.817,8.321 C7.209,9.997 6.485,12.305 6.665,15.183 C6.743,16.497 7.839,17.531 9.165,17.531 L9.219,17.531 L9.333,17.525 C10.699,17.439 11.751,16.249 11.667,14.871 C11.579,13.453 11.833,12.419 12.427,11.795 C13.141,11.043 14.279,10.943 14.511,10.929 L14.625,10.933 C15.903,10.933 17.045,9.783 17.069,8.469 C17.083,7.801 16.833,7.167 16.365,6.685 C15.903,6.205 15.277,5.933 14.609,5.919 L14.593,5.919 L14.541,5.919 Z M14.541,7.419 C14.563,7.419 14.575,7.419 14.581,7.419 C15.137,7.429 15.581,7.887 15.569,8.443 C15.559,8.965 15.075,9.433 14.625,9.433 C14.599,9.433 14.575,9.431 14.547,9.427 C14.479,9.427 12.589,9.447 11.339,10.761 C10.447,11.701 10.055,13.115 10.169,14.963 C10.203,15.517 9.785,15.995 9.229,16.029 C9.207,16.031 9.187,16.031 9.165,16.031 C8.637,16.031 8.193,15.621 8.163,15.089 C8.009,12.649 8.593,10.719 9.899,9.359 C11.679,7.501 14.185,7.419 14.541,7.419 Z" id="Fill-6" fill="#FFFFFF"></path>
                        <path d="M9.8554,19.5292 C8.4874,19.5292 7.3774,20.6412 7.3774,22.0072 C7.3774,23.3752 8.4874,24.4872 9.8554,24.4872 C11.2234,24.4872 12.3334,23.3752 12.3334,22.0072 C12.3334,20.6412 11.2234,19.5292 9.8554,19.5292 M9.8554,21.0292 C10.3974,21.0292 10.8334,21.4672 10.8334,22.0072 C10.8334,22.5492 10.3974,22.9872 9.8554,22.9872 C9.3154,22.9872 8.8774,22.5492 8.8774,22.0072 C8.8774,21.4672 9.3154,21.0292 9.8554,21.0292" id="Fill-8" fill="#FFFFFF"></path>
                    </g>
                </g>
            </g>
        </g>
    </g>
</svg>