<svg data-name="Ebene 1" xmlns="http://www.w3.org/2000/svg" width="30" height="30" viewBox="0 0 94 94">
    <title>cart</title>
    <g>
        <circle cx="35.637" cy="73.126" r="4.521"/>
        <circle cx="56.158" cy="72.536" r="4.521"/>
        <path d="M73.638 31.745a2.346 2.346 0 0 0-1.857-.91h-36.46l.524 4.695h32.902L64.85 48.953l-32.778.012-2.883-25.084a2.347 2.347 0 0 0-2.333-2.082H16.53l1 4.696h7.231l4.298 36.096a2.348 2.348 0 0 0 2.333 2.085h32.01l.544-4.695h-30.66l-.698-6.32 34.08-.012a2.347 2.347 0 0 0 2.273-1.759l5.114-18.119a2.35 2.35 0 0 0-.417-2.026z"/>
    </g>
</svg>