<?xml version="1.0" encoding="UTF-8"?>
<svg width="36px" height="32px" viewBox="0 0 36 32" version="1.1" xmlns="http://www.w3.org/2000/svg" xmlns:xlink="http://www.w3.org/1999/xlink">
    <!-- Generator: Sketch 51.3 (57544) - http://www.bohemiancoding.com/sketch -->
    <title>ico/checkbox-big-active</title>
    <desc>Created with Sketch.</desc>
    <defs></defs>
    <g id="ico/checkbox-big-active" stroke="none" stroke-width="1" fill="none" fill-rule="evenodd">
        <rect id="Rectangle-28" fill="#FFFFFF" opacity="0.3" x="0" y="2" width="30" height="30" rx="5"></rect>
        <path d="M36,2.52013652 C36,3.90444378 35.3781751,5.25323575 34.1345066,6.5665529 L33.9409177,6.76177474 L23.0647392,18.3153584 C20.753393,20.7645174 18.7852585,22.6575587 17.1602766,23.9945392 C15.5352946,25.3315198 14.3884383,26 13.7196732,26 C13.0157099,26 12.1416352,25.6657599 11.097423,24.9972696 C10.0532108,24.3287794 9.37858942,23.639594 9.07353865,22.9296928 C8.81541878,22.3381085 8.57196846,21.0839686 8.34318039,19.1672355 C8.11439232,17.2505024 8,15.1740726 8,12.937884 C8,11.7192203 8.50449946,10.5922691 9.51351351,9.55699659 C10.5225276,8.52172406 11.6371194,8.00409556 12.8573224,8.00409556 C14.0188619,8.00409556 14.7110821,9.07484709 14.9340038,11.2163823 C14.9574692,11.4648477 14.975068,11.648236 14.9868008,11.7665529 C15.1745243,13.4111573 15.3915764,14.5588136 15.6379635,15.2095563 C15.8843507,15.860299 16.2187282,16.1856655 16.6411062,16.1856655 C16.817097,16.1856655 17.1456083,15.9934035 17.6266499,15.6088737 C18.1076915,15.2243439 18.6825862,14.7007997 19.3513514,14.0382253 L30.5267128,2.87508532 C31.4653305,1.92855044 32.3042075,1.21274418 33.043369,0.727645051 C33.7825304,0.242545925 34.4102216,0 34.9264613,0 C35.3136412,0 35.589356,0.147893857 35.7536141,0.443686007 C35.9178722,0.739478157 36,1.23640152 36,1.93447099 L36,2.52013652 Z" id="✔︎" fill="#FFFFFF"></path>
    </g>
</svg>