<?xml version="1.0" encoding="UTF-8"?>
<svg width="32px" height="32px" viewBox="0 0 32 32" version="1.1" xmlns="http://www.w3.org/2000/svg" xmlns:xlink="http://www.w3.org/1999/xlink">
    <!-- Generator: Sketch 50.2 (55047) - http://www.bohemiancoding.com/sketch -->
    <title>icon/donations dark</title>
    <desc>Created with Sketch.</desc>
    <defs>
        <path d="M29.9316,17.8572 C29.9096,18.0792 29.8666,18.2942 29.8336,18.5122 C29.8006,18.7312 29.7766,18.9522 29.7336,19.1672 C29.6736,19.4662 29.5926,19.7582 29.5126,20.0502 C29.4786,20.1742 29.4526,20.3022 29.4156,20.4252 C29.3106,20.7692 29.1866,21.1032 29.0566,21.4352 C29.0316,21.4982 29.0116,21.5652 28.9856,21.6282 C28.8336,21.9952 28.6646,22.3532 28.4816,22.7032 C28.4706,22.7262 28.4606,22.7492 28.4496,22.7722 C27.8576,23.8912 27.1146,24.9182 26.2466,25.8252 C26.2466,25.8252 26.2466,25.8252 26.2456,25.8252 C26.2036,25.8332 26.1566,25.8372 26.1056,25.8372 C24.6176,25.8372 19.8576,22.5242 20.2536,21.7802 C20.3416,21.6142 20.4826,21.5482 20.6606,21.5482 C21.3046,21.5482 22.4276,22.4112 23.2636,22.4112 L23.2766,22.4112 C24.3426,22.4002 25.6426,21.7682 26.3426,21.0972 C27.2166,20.2602 27.2576,18.8352 27.2526,16.5792 C27.2456,14.0842 24.7436,13.0102 24.3196,12.5432 C23.8956,12.0752 23.9806,10.1982 23.9806,9.9612 C23.9806,8.7492 25.7296,6.6832 25.7476,6.6832 C26.3996,7.2972 26.9906,7.9752 27.5116,8.7072 C27.5126,8.7092 27.5146,8.7112 27.5156,8.7122 C27.7656,9.0652 27.9976,9.4312 28.2136,9.8072 C28.2246,9.8262 28.2366,9.8442 28.2476,9.8632 C28.4496,10.2172 28.6306,10.5832 28.8006,10.9572 C28.8206,11.0012 28.8436,11.0432 28.8636,11.0872 C29.0156,11.4352 29.1476,11.7932 29.2716,12.1542 C29.2966,12.2282 29.3286,12.2992 29.3526,12.3742 C29.4616,12.7122 29.5486,13.0612 29.6306,13.4102 C29.6546,13.5112 29.6866,13.6082 29.7076,13.7112 C29.7806,14.0532 29.8286,14.4032 29.8746,14.7542 C29.8896,14.8672 29.9136,14.9762 29.9256,15.0882 C29.9736,15.5522 29.9996,16.0232 29.9996,16.5002 C29.9996,16.9582 29.9756,17.4102 29.9316,17.8572 M20.1326,29.4912 C20.1116,29.4972 20.0896,29.5022 20.0686,29.5072 C19.7146,29.6062 19.3556,29.6902 18.9906,29.7612 C18.8726,29.7832 18.7526,29.7962 18.6336,29.8152 C18.3526,29.8612 18.0716,29.9072 17.7856,29.9352 C17.3626,29.9752 16.9336,30.0002 16.4996,30.0002 C16.0596,30.0002 15.6246,29.9752 15.1956,29.9342 C14.7706,29.8912 14.3506,29.8292 13.9376,29.7502 C13.9366,29.7502 13.9346,29.7492 13.9336,29.7492 C14.2026,28.8022 14.5316,26.4422 16.3126,26.1302 C16.4146,26.1122 16.5176,26.1042 16.6226,26.1042 C18.3486,26.1042 20.4166,28.4142 21.2476,29.1242 C20.8836,29.2622 20.5116,29.3842 20.1326,29.4912 M8.9576,27.6972 C8.5446,27.4192 8.1536,27.1132 7.7756,26.7922 C7.6616,26.6952 7.5546,26.5912 7.4446,26.4912 C7.1846,26.2562 6.9326,26.0122 6.6916,25.7572 C6.5756,25.6342 6.4616,25.5082 6.3496,25.3802 C6.1196,25.1192 5.9026,24.8462 5.6936,24.5672 C5.6026,24.4452 5.5076,24.3262 5.4196,24.2012 C5.1376,23.7952 4.8706,23.3782 4.6336,22.9412 L4.6306,22.9372 C4.3926,22.5002 4.1856,22.0442 3.9966,21.5792 C3.9386,21.4362 3.8896,21.2882 3.8366,21.1432 C3.7146,20.8112 3.6036,20.4732 3.5076,20.1302 C3.4606,19.9592 3.4166,19.7872 3.3756,19.6132 C3.2926,19.2662 3.2276,18.9132 3.1726,18.5552 C3.1486,18.3952 3.1186,18.2372 3.0996,18.0752 C3.0386,17.5572 2.9996,17.0332 2.9996,16.5002 C2.9996,16.3282 3.0196,16.1612 3.0256,15.9912 C3.0396,15.9212 3.0606,15.8282 3.0936,15.5832 L7.1496,14.6892 C7.1766,14.6832 7.2026,14.6802 7.2286,14.6802 C7.3276,14.6802 7.4206,14.7212 7.4866,14.7992 C7.9346,15.3322 9.4136,17.0822 10.0946,17.7912 C10.2596,17.9622 10.4156,18.1132 10.5626,18.2542 C11.2056,18.8722 11.3996,19.0592 11.3486,20.2592 C11.2836,21.7962 9.8416,21.8542 9.5466,22.4652 C9.2526,23.0772 9.9946,24.8182 10.0366,25.5672 C10.0806,26.3162 9.2136,27.3162 8.9576,27.6982 C8.9576,27.6982 8.9576,27.6982 8.9576,27.6972 M29.3726,9.8552 C29.3236,9.7592 29.2806,9.6592 29.2286,9.5642 C29.0986,9.3282 28.9516,9.1012 28.8076,8.8722 C28.6906,8.6842 28.5786,8.4922 28.4536,8.3092 C28.3476,8.1562 28.2306,8.0102 28.1186,7.8612 C27.9316,7.6102 27.7426,7.3612 27.5396,7.1232 C27.4566,7.0252 27.3666,6.9322 27.2796,6.8362 C27.0326,6.5612 26.7796,6.2932 26.5126,6.0382 C26.4856,6.0112 26.4616,5.9822 26.4336,5.9552 C26.4226,5.9452 26.4076,5.9412 26.3956,5.9312 C23.8016,3.5012 20.3266,2.0002 16.4996,2.0002 C14.8546,2.0002 13.2806,2.2902 11.8066,2.7972 C12.2776,2.9302 12.7066,3.1512 13.0806,3.4472 C14.1736,3.1612 15.3166,3.0002 16.4996,3.0002 C19.7236,3.0002 22.6796,4.1332 25.0006,6.0182 C24.7696,6.2502 24.4696,6.6372 24.0216,7.3182 C23.3216,8.3832 22.9806,9.2472 22.9806,9.9612 L22.9786,10.0512 C22.9426,11.7882 23.1166,12.7042 23.5776,13.2142 C23.7446,13.3972 23.9666,13.5512 24.2476,13.7462 C25.2606,14.4472 26.2486,15.2432 26.2526,16.5822 C26.2566,18.5792 26.2186,19.8312 25.6506,20.3752 C25.1376,20.8672 24.0796,21.4032 23.2656,21.4112 C23.0396,21.4112 22.5666,21.1912 22.2206,21.0312 C21.6866,20.7832 21.1816,20.5482 20.6606,20.5482 C20.0986,20.5482 19.6276,20.8262 19.3706,21.3112 C19.2436,21.5492 19.0896,22.0452 19.4796,22.6942 C20.1606,23.8282 23.3396,26.1322 25.3206,26.7052 C24.3746,27.5242 23.3146,28.2082 22.1656,28.7412 C22.1066,28.5992 22.0186,28.4682 21.8976,28.3642 C21.7596,28.2462 21.5856,28.0812 21.3836,27.8892 C20.2116,26.7802 18.4406,25.1042 16.6226,25.1042 C16.4586,25.1042 16.2966,25.1172 16.1396,25.1452 C13.9436,25.5302 13.3546,27.9312 13.0726,29.0842 C13.0356,29.2322 13.0036,29.3642 12.9726,29.4762 C12.9686,29.4892 12.9726,29.5032 12.9696,29.5172 C11.8536,29.2152 10.7956,28.7792 9.8146,28.2182 C9.8506,28.1672 9.8906,28.1122 9.9426,28.0422 C10.3726,27.4612 11.0916,26.4902 11.0356,25.5102 C11.0136,25.1292 10.8936,24.6862 10.7556,24.1732 C10.6616,23.8282 10.4996,23.2262 10.4786,22.9232 C10.5406,22.8832 10.6196,22.8362 10.6846,22.7962 C11.2436,22.4612 12.2826,21.8382 12.3476,20.3012 C12.4116,18.7932 12.0996,18.3442 11.2556,17.5332 C11.1176,17.4002 10.9706,17.2592 10.8156,17.0982 C10.1556,16.4102 8.6866,14.6722 8.2516,14.1562 C7.9976,13.8542 7.6246,13.6802 7.2286,13.6802 C7.1306,13.6802 7.0316,13.6912 6.9346,13.7122 L3.1576,14.5452 C3.3926,12.9282 3.9146,11.4042 4.6686,10.0252 L3.9396,9.2952 C2.8176,11.2492 2.1356,13.4852 2.0316,15.8702 C2.0056,16.0242 1.9996,16.1562 1.9996,16.5002 C1.9996,17.0622 2.0396,17.6142 2.1026,18.1592 C2.1206,18.3242 2.1526,18.4852 2.1776,18.6492 C2.2346,19.0322 2.3026,19.4122 2.3896,19.7852 C2.4326,19.9702 2.4816,20.1532 2.5316,20.3362 C2.6276,20.6852 2.7366,21.0272 2.8576,21.3662 C2.9226,21.5472 2.9846,21.7282 3.0566,21.9062 C3.1996,22.2602 3.3606,22.6042 3.5296,22.9442 C3.6016,23.0892 3.6636,23.2392 3.7416,23.3822 C3.9806,23.8232 4.2436,24.2502 4.5256,24.6622 C4.6596,24.8592 4.8096,25.0452 4.9536,25.2352 C5.1276,25.4642 5.3026,25.6902 5.4886,25.9082 C5.6576,26.1072 5.8336,26.2982 6.0146,26.4872 C6.2066,26.6892 6.4056,26.8832 6.6096,27.0732 C6.7936,27.2462 6.9756,27.4192 7.1706,27.5832 C7.4576,27.8252 7.7586,28.0502 8.0646,28.2712 C8.1796,28.3532 8.2816,28.4472 8.3986,28.5262 C8.4136,28.5372 8.4326,28.5412 8.4496,28.5512 C10.0226,29.6062 11.8146,30.3562 13.7396,30.7292 C13.7416,30.7292 13.7426,30.7312 13.7446,30.7312 C13.8026,30.7422 13.8606,30.7462 13.9186,30.7562 C14.3116,30.8272 14.7076,30.8912 15.1116,30.9292 C15.5776,30.9762 16.0426,31.0002 16.4996,31.0002 C16.9566,31.0002 17.4116,30.9752 17.8666,30.9312 C18.1236,30.9062 18.3746,30.8632 18.6286,30.8262 C18.8066,30.7982 18.9866,30.7772 19.1646,30.7432 C19.5036,30.6802 19.8346,30.5992 20.1636,30.5132 C20.2486,30.4902 20.3336,30.4712 20.4176,30.4472 C20.7816,30.3452 21.1376,30.2262 21.4896,30.0972 C21.5266,30.0832 21.5636,30.0742 21.6006,30.0602 C21.6096,30.0572 21.6176,30.0502 21.6266,30.0462 C23.6506,29.2772 25.4596,28.0752 26.9356,26.5422 C26.9456,26.5322 26.9586,26.5272 26.9686,26.5172 C27.0496,26.4322 27.1196,26.3392 27.1986,26.2532 C27.4086,26.0232 27.6166,25.7912 27.8116,25.5482 C27.9206,25.4132 28.0186,25.2722 28.1216,25.1342 C28.2916,24.9052 28.4626,24.6772 28.6196,24.4392 C28.7306,24.2702 28.8286,24.0952 28.9326,23.9222 C29.0646,23.7032 29.1986,23.4852 29.3186,23.2582 C29.4246,23.0592 29.5156,22.8542 29.6116,22.6502 C29.7116,22.4372 29.8166,22.2272 29.9066,22.0092 C29.9986,21.7842 30.0756,21.5542 30.1566,21.3252 C30.2306,21.1172 30.3106,20.9112 30.3746,20.6992 C30.4506,20.4502 30.5076,20.1962 30.5696,19.9422 C30.6186,19.7412 30.6766,19.5432 30.7176,19.3382 C30.7756,19.0472 30.8116,18.7522 30.8516,18.4572 C30.8756,18.2832 30.9096,18.1122 30.9276,17.9372 C30.9736,17.4612 30.9996,16.9822 30.9996,16.5002 C30.9996,14.1402 30.4276,11.8832 29.3726,9.8552 M15.9951,9.0233 C15.9861,9.0233 15.9781,9.0233 15.9691,9.0233 L15.4561,9.0373 C14.9001,9.0453 14.2021,9.0573 13.7511,9.5343 C13.4311,9.8733 13.2901,10.3863 13.3181,11.1043 C13.3901,12.9033 13.5231,13.2723 14.1691,14.3553 L14.6331,15.1503 C15.3081,16.3383 15.6251,16.5253 17.0541,16.5713 C17.0691,16.5723 17.4041,16.5773 17.4051,16.5773 C19.7201,16.5773 20.2381,15.7933 20.2651,15.1353 C20.3071,14.0703 20.0451,13.7513 19.3431,13.1723 C19.2041,13.0583 19.0541,12.9343 18.8941,12.7883 C18.2131,12.1613 18.2241,11.8393 18.2411,11.3963 C18.2451,11.2733 18.2481,11.1673 18.2451,11.0493 C18.2261,10.4953 18.1771,9.0233 15.9951,9.0233 M15.9951,10.0233 C17.2101,10.0233 17.2261,10.5143 17.2451,11.0833 C17.2481,11.1843 17.2451,11.2743 17.2421,11.3593 C17.2171,12.0293 17.2731,12.6553 18.2181,13.5243 C18.3921,13.6843 18.5561,13.8203 18.7071,13.9443 C19.2361,14.3803 19.2921,14.4263 19.2661,15.0943 C19.2561,15.3353 18.6141,15.5773 17.4051,15.5773 C17.4041,15.5773 17.0861,15.5723 17.0861,15.5723 C16.0031,15.5373 16.0031,15.5373 15.4971,14.6473 L15.0281,13.8423 C14.4961,12.9513 14.3851,12.7663 14.3171,11.0653 C14.2941,10.4803 14.4221,10.2803 14.4771,10.2213 C14.6401,10.0493 15.1261,10.0423 15.4821,10.0363 L15.9951,10.0233" id="path-1"></path>
        <path d="M3.4946,6.3255 C3.4946,4.8465 4.6976,3.6435 6.1766,3.6435 C6.8926,3.6435 7.5666,3.9225 8.0736,4.4295 L8.4946,4.8485 L8.9156,4.4285 C9.4226,3.9225 10.0966,3.6435 10.8126,3.6435 C12.2916,3.6435 13.4946,4.8465 13.4946,6.3255 C13.4946,7.0415 13.2156,7.7155 12.7096,8.2215 L8.4946,12.4365 L4.2796,8.2215 C3.7736,7.7155 3.4946,7.0415 3.4946,6.3255" id="path-3"></path>
    </defs>
    <g id="icon/donations-dark" stroke="none" stroke-width="1" fill="none" fill-rule="evenodd">
        <mask id="mask-2" fill="white">
            <use xlink:href="#path-1"></use>
        </mask>
        <use id="Fill-3" fill="#383838" xlink:href="#path-1"></use>
        <g id="Style-/-Color-/-Dark-grey" mask="url(#mask-2)" fill="#4A4A4A">
            <rect id="Container" x="0" y="0" width="32" height="32"></rect>
        </g>
        <mask id="mask-4" fill="white">
            <use xlink:href="#path-3"></use>
        </mask>
        <use id="Fill-6" fill="#FFB902" xlink:href="#path-3"></use>
    </g>
</svg>