<?xml version="1.0" encoding="UTF-8"?>
<svg width="40px" height="40px" viewBox="0 0 40 40" version="1.1" xmlns="http://www.w3.org/2000/svg" xmlns:xlink="http://www.w3.org/1999/xlink">
    <!-- Generator: Sketch 51.2 (57519) - http://www.bohemiancoding.com/sketch -->
    <title>ic_flags/int</title>
    <desc>Created with Sketch.</desc>
    <defs></defs>
    <g id="ic_flags/int" stroke="none" stroke-width="1" fill="none" fill-rule="evenodd">
        <rect id="Rectangle-6" fill="#4A90E2" x="0" y="0" width="40" height="40"></rect>
        <path d="M19.986,6 C12.258,6 6,12.272 6,20 C6,27.728 12.258,34 19.986,34 C27.728,34 34,27.728 34,20 C34,12.272 27.728,6 19.986,6 Z M29.688,14.4 L25.558,14.4 C25.11,12.65 24.466,10.97 23.626,9.416 C26.202,10.298 28.344,12.09 29.688,14.4 Z M20,8.856 C21.162,10.536 22.072,12.398 22.674,14.4 L17.326,14.4 C17.928,12.398 18.838,10.536 20,8.856 Z M9.164,22.8 C8.94,21.904 8.8,20.966 8.8,20 C8.8,19.034 8.94,18.096 9.164,17.2 L13.896,17.2 C13.784,18.124 13.7,19.048 13.7,20 C13.7,20.952 13.784,21.876 13.896,22.8 L9.164,22.8 Z M10.312,25.6 L14.442,25.6 C14.89,27.35 15.534,29.03 16.374,30.584 C13.798,29.702 11.656,27.924 10.312,25.6 Z M14.442,14.4 L10.312,14.4 C11.656,12.076 13.798,10.298 16.374,9.416 C15.534,10.97 14.89,12.65 14.442,14.4 Z M20,31.144 C18.838,29.464 17.928,27.602 17.326,25.6 L22.674,25.6 C22.072,27.602 21.162,29.464 20,31.144 Z M23.276,22.8 L16.724,22.8 C16.598,21.876 16.5,20.952 16.5,20 C16.5,19.048 16.598,18.11 16.724,17.2 L23.276,17.2 C23.402,18.11 23.5,19.048 23.5,20 C23.5,20.952 23.402,21.876 23.276,22.8 Z M23.626,30.584 C24.466,29.03 25.11,27.35 25.558,25.6 L29.688,25.6 C28.344,27.91 26.202,29.702 23.626,30.584 Z M26.104,22.8 C26.216,21.876 26.3,20.952 26.3,20 C26.3,19.048 26.216,18.124 26.104,17.2 L30.836,17.2 C31.06,18.096 31.2,19.034 31.2,20 C31.2,20.966 31.06,21.904 30.836,22.8 L26.104,22.8 Z" id="Shape" fill="#FFFFFF" fill-rule="nonzero"></path>
    </g>
</svg>