<?xml version="1.0" encoding="UTF-8"?>
<svg width="70px" height="70px" viewBox="0 0 70 70" version="1.1" xmlns="http://www.w3.org/2000/svg" xmlns:xlink="http://www.w3.org/1999/xlink">
    <!-- Generator: Sketch 50.2 (55047) - http://www.bohemiancoding.com/sketch -->
    <title>kanso/recipe/filter/fettverwertungsstoerung/white</title>
    <desc>Created with Sketch.</desc>
    <defs></defs>
    <g id="Website-V03" stroke="none" stroke-width="1" fill="none" fill-rule="evenodd">
        <g id="icons-kanso-&amp;-flavis" transform="translate(-696.000000, -172.000000)">
            <g id="cat1_white" transform="translate(696.000000, 172.000000)">
                <g id="ic/navi/01">
                    <rect id="Rectangle-4" fill="#D8D8D8" opacity="0" x="0" y="0" width="70" height="70"></rect>
                    <g id="Group-26" stroke-width="1" transform="translate(8.750000, 5.250000)">
                        <path d="M27.8719,12.686625 C32.80515,12.975375 37.47415,13.537125 37.9029,15.178625 C37.99915,15.546125 38.05515,15.929375 38.07615,16.326625" id="Stroke-2"  stroke-width="1.75" stroke-linecap="round"></path>
                        <path d="M11.1818,35.485275 C9.3408,36.687525 7.12005,38.110275 6.4358,38.110275 C5.28955,38.110275 4.4933,37.345525 4.25355,34.416025 C4.01555,31.484775 1.9768,27.536775 1.46755,24.988775 C0.9583,22.440775 1.30655,15.689275 4.25355,14.287525 C7.2023,12.885775 12.51005,11.485775 17.69005,12.121025 C19.2073,12.308275 21.50155,12.397525 24.01105,12.500775" id="Stroke-4"  stroke-width="1.75" stroke-linecap="round"></path>
                        <path d="M27.73505,27.994925 C24.31555,29.279425 20.6738,29.638175 18.92205,27.410425 C18.92205,27.410425 17.79155,29.846425 16.3443,31.717175" id="Stroke-6"  stroke-width="1.75" stroke-linecap="round"></path>
                        <path d="M21.724675,21.676725 C21.724675,21.676725 18.156425,22.695225 18.921175,27.409725" id="Stroke-8"  stroke-width="1.3125" stroke-linecap="round"></path>
                        <path d="M10.479525,15.20995 C10.070025,15.20995 7.936775,15.29395 6.360025,16.9407 C5.201525,18.14645 4.681775,19.79845 4.809525,21.8477 C4.870775,22.89595 5.747525,23.72195 6.804525,23.72195 L6.855275,23.72195 L6.946275,23.7167 C8.029525,23.64845 8.869525,22.6982 8.801275,21.59745 C8.764525,20.9902 8.808275,20.1677 9.242275,19.7127 C9.602775,19.33295 10.208275,19.2227 10.456775,19.21045 L10.537275,19.2122 C11.576775,19.2122 12.474525,18.31095 12.493775,17.24695 C12.504275,16.71145 12.304775,16.2057 11.932025,15.8207 C11.562775,15.43745 11.064025,15.22045 10.530275,15.20995 L10.518025,15.20995 L10.479525,15.20995 Z M10.479525,16.52245 L10.507525,16.52245 C10.885525,16.52945 11.188275,16.8427 11.181275,17.2207 C11.174275,17.57945 10.845275,17.8997 10.537275,17.8997 C10.518025,17.8997 10.502275,17.89795 10.483025,17.8962 C10.437525,17.8962 9.144275,17.90845 8.292025,18.80795 C7.679525,19.44845 7.411775,20.4162 7.490525,21.6797 C7.515025,22.05945 7.228025,22.38495 6.848275,22.4077 C6.832525,22.40945 6.818525,22.40945 6.804525,22.40945 C6.442275,22.40945 6.141275,22.12945 6.118525,21.76545 C6.013525,20.09595 6.414275,18.7782 7.306775,17.84895 C8.524775,16.5767 10.239775,16.52245 10.479525,16.52245 Z" id="Fill-10" fill="#FFFFFF"></path>
                        <path d="M7.27685,24.51365 C6.18485,24.51365 5.2941,25.40265 5.2941,26.49465 C5.2941,27.5884 6.18485,28.4774 7.27685,28.4774 C8.36885,28.4774 9.25785,27.5884 9.25785,26.49465 C9.25785,25.40265 8.36885,24.51365 7.27685,24.51365 M7.27685,25.82615 C7.6461,25.82615 7.94535,26.1254 7.94535,26.49465 C7.94535,26.8639 7.6461,27.1649 7.27685,27.1649 C6.9076,27.1649 6.6066,26.8639 6.6066,26.49465 C6.6066,26.1254 6.9076,25.82615 7.27685,25.82615" id="Fill-12" fill="#FFFFFF"></path>
                        <path d="M25.761225,1.2502 C25.761225,1.2502 27.425475,19.2157 28.477225,20.87995 C28.477225,20.87995 31.984225,16.0202 36.364475,16.52245 C40.746475,17.0247 43.637475,20.4547 43.549975,26.4957 C43.462475,32.53495 39.517975,44.27745 34.260975,45.7667 C29.003975,47.2577 26.287975,46.55595 23.220225,42.8757 C20.152475,39.19545 17.961475,36.74195 15.947225,37.7062 C13.929475,38.6687 13.841975,44.18995 18.138225,46.03095 C22.430975,47.87195 30.580725,45.5917 32.771725,47.3452 C34.962725,49.09695 34.435975,55.31995 31.630725,57.42345 C28.828975,59.5252 26.987975,56.7217 27.162975,56.01995 C27.337975,55.31995 29.178975,51.5522 26.548725,50.50045 C23.920225,49.4487 19.100725,53.12895 14.982975,49.7987 C10.863475,46.46845 6.621475,39.3092 12.791975,33.8492 C18.960725,28.39095 23.220225,36.65445 25.061225,36.74195 C26.898725,36.82945 29.880725,32.69945 27.162975,25.0362 C25.325475,19.8527 23.307725,9.74995 23.001475,4.2742" id="Stroke-14"  stroke-width="1.75" stroke-linecap="round" stroke-linejoin="round"></path>
                        <path d="M32.76805,56.16415 C32.76805,56.16415 32.68405,54.17965 29.6163,54.4439" id="Stroke-16"  stroke-width="1.3125" stroke-linecap="round"></path>
                        <path d="M28.082075,20.39835 C28.082075,20.39835 30.668575,28.94185 31.545325,30.69535 C32.420325,32.4471 34.959575,39.8916 29.179325,41.7361 C25.059825,43.05035 23.306325,39.5451 23.306325,39.5451" id="Stroke-18"  stroke-width="1.3125" stroke-linecap="round"></path>
                        <path d="M27.162625,25.03655 C27.162625,25.03655 29.938125,31.7758 30.492875,34.4638 C31.049375,37.15005 29.763125,40.18805 27.484625,39.98505" id="Stroke-20"  stroke-width="1.3125" stroke-linecap="round"></path>
                        <path d="M42.967225,31.088925 C42.967225,31.088925 44.339225,30.255925 45.506475,30.607675 C45.506475,30.607675 48.428975,28.283675 50.530725,29.562925 C52.634225,30.840425 46.090975,39.604425 44.104725,41.123425 C42.120225,42.642425 35.881475,44.962925 35.881475,44.962925" id="Stroke-22"  stroke-width="1.75" stroke-linecap="round" stroke-linejoin="round"></path>
                        <path d="M43.551725,15.24495 C45.077725,15.7402 46.531975,16.37195 47.609975,17.16995 C52.226475,20.5877 51.106475,30.60645 51.106475,30.60645" id="Stroke-24"  stroke-width="1.3125" stroke-linecap="round"></path>
                    </g>
                </g>
            </g>
        </g>
    </g>
</svg>