<?xml version="1.0" encoding="UTF-8"?>
<svg width="70px" height="70px" viewBox="0 0 70 70" version="1.1" xmlns="http://www.w3.org/2000/svg" xmlns:xlink="http://www.w3.org/1999/xlink">
    <!-- Generator: Sketch 50.2 (55047) - http://www.bohemiancoding.com/sketch -->
    <title>kanso/recipe/filter/ketogene-diaet/white</title>
    <desc>Created with Sketch.</desc>
    <defs></defs>
    <g id="Website-V03" stroke="none" stroke-width="1" fill="none" fill-rule="evenodd">
        <g id="icons-kanso-&amp;-flavis" transform="translate(-696.000000, -347.000000)">
            <g id="cat3_white" transform="translate(696.000000, 347.000000)">
                <g id="ic/navi/03">
                    <rect id="Rectangle-4" fill="#D8D8D8" opacity="0" x="0" y="0" width="70" height="70"></rect>
                    <g id="Group-46" stroke-width="1" transform="translate(8.750000, 8.750000)">
                        <path d="M27.125,8.021125 C27.125,8.021125 24.9375,4.083625 20.70775,5.978875 C20.70775,5.978875 17.0625,5.978875 16.77025,8.750875 C16.47975,11.521125 18.52025,11.958625 18.52025,11.958625 C18.52025,11.958625 18.08275,16.188375 23.04225,15.750875 C23.04225,15.750875 22.75,21.146125 28.29225,19.688375" id="Stroke-2"  stroke-width="1.75" stroke-linecap="round"></path>
                        <path d="M22.5176,10.791375 C22.5176,10.791375 28.2926,9.186625 28.2926,14.436625 C28.2926,14.436625 35.2926,14.583625 32.5206,20.561625 C32.5206,20.561625 35.00035,24.791375 31.7926,26.396125 C28.5831,27.999125 26.25035,26.103875 25.5206,23.624125" id="Stroke-4"  stroke-width="1.75" stroke-linecap="round"></path>
                        <path d="M31.0625,10.0625 C31.0625,10.0625 34.67275,10.28125 34.78125,13.2335 C34.78125,13.2335 38.82725,14.7665 36.09375,17.82725 C36.09375,17.82725 38.3215,22.20225 33.43375,23.1875" id="Stroke-6"  stroke-width="1.75" stroke-linecap="round"></path>
                        <path d="M31.609375,7.328125 C31.609375,7.328125 35.109375,4.594625 37.953125,7.328125 C40.796875,10.061625 38.936625,12.700625 38.936625,12.700625" id="Stroke-8"  stroke-width="1.75" stroke-linecap="round"></path>
                        <path d="M12.578125,10.560725 C12.578125,10.560725 11.375875,14.328475 15.859375,15.203475" id="Stroke-10"  stroke-width="1.75" stroke-linecap="round"></path>
                        <path d="M20.78125,19.937925 C20.78125,19.937925 18.2665,22.421175 15.3125,20.562675 C12.36025,18.702425 13.80225,14.379925 13.80225,14.379925" id="Stroke-12"  stroke-width="1.75" stroke-linecap="round"></path>
                        <path d="M26.25,25.703125 C26.25,25.703125 21.2555,27.237875 18.9945,21.000875" id="Stroke-14"  stroke-width="1.75" stroke-linecap="round"></path>
                        <path d="M33.434625,24.828125 C33.434625,24.828125 35.765625,27.020875 37.844625,25.869375 C39.921875,24.719625 39.375875,22.532125 38.938375,21.765625" id="Stroke-16"  stroke-width="1.75" stroke-linecap="round"></path>
                        <path d="M40.25,18.774875 C40.25,18.774875 42.9835,17.280375 42.875,15.203125 C42.76475,13.124125 39.5325,10.560375 39.5325,10.560375" id="Stroke-18"  stroke-width="1.75" stroke-linecap="round"></path>
                        <path d="M42.16065,17.1556 C42.16065,17.1556 45.4909,21.7196 39.5339,23.9841" id="Stroke-20"  stroke-width="1.75" stroke-linecap="round"></path>
                        <path d="M13.449625,17.8171 C13.449625,17.8171 7.984375,18.2651 7.328125,15.2026 C6.671875,12.1401 9.734375,11.1566 9.734375,11.1566" id="Stroke-22"  stroke-width="1.75" stroke-linecap="round"></path>
                        <path d="M13.449625,7 C13.449625,7 10.499125,5.03125 8.421875,7.546 C6.342875,10.0625 8.082375,12.23775 8.082375,12.23775" id="Stroke-24"  stroke-width="1.75" stroke-linecap="round"></path>
                        <path d="M20.70775,5.978875 C20.70775,5.978875 17.82725,2.734375 14.9835,3.061625 C12.13975,3.390625 11.046,6.267625 11.046,6.267625" id="Stroke-26"  stroke-width="1.75" stroke-linecap="round"></path>
                        <path d="M25.467225,6.266925 C25.467225,6.266925 26.440225,2.187675 22.516725,1.639925 C18.593225,1.093925 18.234475,3.953425 18.234475,3.953425" id="Stroke-28"  stroke-width="1.75" stroke-linecap="round"></path>
                        <path d="M33.434625,6.3924 C33.434625,6.3924 31.539375,-0.25585 25.395125,3.9179" id="Stroke-30"  stroke-width="1.75" stroke-linecap="round"></path>
                        <path d="M8.191225,16.625 C8.191225,16.625 7.218225,21.938 9.843225,23.9855 C12.468225,26.03125 15.640975,26.12225 20.780725,24.05375" id="Stroke-32"  stroke-width="1.75" stroke-linecap="round"></path>
                        <path d="M13.449625,25.49715 C13.449625,25.49715 11.955125,29.8599 12.431125,30.7349 C12.905375,31.6099 13.703375,31.6099 14.398125,30.7349 C15.092875,29.8599 15.703625,25.80515 21.305375,24.5504" id="Stroke-34"  stroke-width="1.3125" stroke-linecap="round"></path>
                        <path d="M35.109375,45.0625 C35.109375,45.0625 33.032125,49.54775 31.061625,50.42275 C29.092875,51.29775 25.375875,54.25 24.390625,54.25 C23.407125,54.25 22.721125,53.59375 22.518125,51.079 C22.313375,48.5625 20.561625,45.171 20.124125,42.98525 C19.686625,40.796 19.985875,35 22.518125,33.79775 C25.046875,32.59375 29.603875,31.3915 34.052375,31.9375 C38.499125,32.48525 50.750875,32.04775 51.407125,34.5625 C52.063375,37.079 50.640625,40.551 47.359375,43.0255 C44.078125,45.5 37.515625,48.125 35.109375,45.0625 Z" id="Stroke-36"  stroke-width="1.75" stroke-linecap="round"></path>
                        <path d="M37.515625,40.140625 C37.515625,40.140625 34.453125,41.015625 35.109375,45.063375" id="Stroke-38"  stroke-width="1.3125" stroke-linecap="round"></path>
                        <path d="M27.861575,34.4036 C27.494075,34.4036 25.597075,34.4771 24.188325,35.94535 C23.159325,37.01985 22.695575,38.4846 22.807575,40.2976 C22.867075,41.29685 23.701825,42.0826 24.706325,42.0826 L24.751825,42.0826 L24.835825,42.07735 C25.871825,42.0126 26.669825,41.10785 26.605075,40.06135 C26.575325,39.5766 26.606825,38.92385 26.934075,38.5826 C27.196575,38.30435 27.653325,38.2221 27.845825,38.2081 L27.910575,38.20985 C28.902825,38.20985 29.756825,37.35585 29.777825,36.34085 C29.795325,35.2926 28.958825,34.4246 27.908825,34.4036 L27.898325,34.4036 L27.861575,34.4036 Z M27.861575,35.7161 L27.884325,35.7161 C28.211575,35.72135 28.472325,35.99085 28.465325,36.31635 C28.458325,36.62435 28.174825,36.89735 27.910575,36.89735 C27.896575,36.89735 27.880825,36.89735 27.865075,36.89385 C27.824825,36.89385 26.715325,36.9061 25.983825,37.67785 C25.458825,38.2291 25.227825,39.0586 25.296075,40.1436 C25.315325,40.4691 25.068575,40.74735 24.743075,40.76835 C24.730825,40.7701 24.718575,40.7701 24.706325,40.7701 C24.396575,40.7701 24.135825,40.5286 24.116575,40.2171 C24.029075,38.78385 24.372075,37.6516 25.136825,36.8536 C26.181575,35.76335 27.651575,35.7161 27.861575,35.7161 Z" id="Fill-40" fill="#FFFFFF"></path>
                        <path d="M25.1118,42.3913 C24.07055,42.3913 23.2253,43.23655 23.2253,44.2778 C23.2253,45.3173 24.07055,46.1643 25.1118,46.1643 C26.15305,46.1643 26.9983,45.3173 26.9983,44.2778 C26.9983,43.23655 26.15305,42.3913 25.1118,42.3913 M25.1118,43.7038 C25.4303,43.7038 25.6858,43.9593 25.6858,44.2778 C25.6858,44.59455 25.4303,44.8518 25.1118,44.8518 C24.7933,44.8518 24.5378,44.59455 24.5378,44.2778 C24.5378,43.9593 24.7933,43.7038 25.1118,43.7038" id="Fill-42" fill="#FFFFFF"></path>
                        <path d="M6.34375,33.46875 C6.34375,33.46875 8.5855,37.352 9.7335,36.80425 C10.88325,36.25825 8.80425,33.57725 8.477,32.648 C8.148,31.71875 7.7105,29.25825 6.94575,29.0395 C6.17925,28.82075 0.32725,33.523 0.273,34.2895 C0.21875,35.05425 1.0395,35.38325 1.80425,35.1085 C2.57075,34.8355 4.2105,34.07075 3.829,34.88975 C3.44575,35.7105 2.07725,40.03125 3.5,43.25825 C4.92275,46.4835 7.92925,49.21875 11.375,49.602 C14.82075,49.98525 14.23625,48.2895 14.14525,48.07075 C14.05425,47.852 12.9745,46.977 10.3425,46.70225 C7.7105,46.42925 5.1415,43.477 4.86675,41.5625 C4.59375,39.648 5.36025,34.34375 6.34375,33.46875 Z" id="Stroke-44"  stroke-width="1.3125" stroke-linecap="round" stroke-linejoin="round"></path>
                    </g>
                </g>
            </g>
        </g>
    </g>
</svg>