<?xml version="1.0" encoding="UTF-8"?>
<svg width="70px" height="70px" viewBox="0 0 70 70" version="1.1" xmlns="http://www.w3.org/2000/svg" xmlns:xlink="http://www.w3.org/1999/xlink">
    <!-- Generator: Sketch 50.2 (55047) - http://www.bohemiancoding.com/sketch -->
    <title>kanso/recipe/filter/oxidationsstoerung/white</title>
    <desc>Created with Sketch.</desc>
    <defs></defs>
    <g id="Website-V03" stroke="none" stroke-width="1" fill="none" fill-rule="evenodd">
        <g id="icons-kanso-&amp;-flavis" transform="translate(-696.000000, -260.000000)">
            <g id="cat2_white" transform="translate(696.000000, 260.000000)">
                <g id="ic/navi/02">
                    <rect id="Rectangle-4" fill="#D8D8D8" opacity="0" x="0" y="0" width="70" height="70"></rect>
                    <g id="Group-10" stroke-width="1" transform="translate(12.250000, 21.000000)">
                        <path d="M23.529275,20.427575 C23.529275,20.427575 20.430025,27.112575 17.497025,28.418075 C14.560525,29.721825 9.016525,34.124825 7.548275,34.124825 C6.080025,34.124825 5.059775,33.146575 4.753525,29.396325 C4.450775,25.644325 1.839775,20.590325 1.188775,17.328325 C0.536025,14.068075 0.982275,5.424825 4.753525,3.631075 C8.528275,1.837325 15.323525,0.043575 21.954275,0.859075 C28.585025,1.674575 46.848025,1.021825 47.828025,4.772075 C48.804525,8.522325 46.685275,13.702325 41.794025,17.391325 C36.902775,21.080325 27.116775,24.993325 23.529275,20.427575 Z" id="Stroke-2"  stroke-width="1.75" stroke-linecap="round"></path>
                        <path d="M27.116425,13.089125 C27.116425,13.089125 22.552425,14.394625 23.528925,20.426875" id="Stroke-4"  stroke-width="1.3125" stroke-linecap="round"></path>
                        <path d="M12.723375,5.179125 C12.222875,5.179125 9.631125,5.280625 7.714875,7.280875 C6.307875,8.747375 5.674375,10.766875 5.831875,13.285125 C5.900125,14.434875 6.859125,15.339625 8.019375,15.339625 L8.066625,15.339625 L8.166375,15.334375 C9.361625,15.259125 10.282125,14.217875 10.208625,13.012125 C10.131625,11.771375 10.353875,10.866625 10.873625,10.320625 C11.498375,9.662625 12.494125,9.575125 12.697125,9.562875 L12.796875,9.566375 C13.915125,9.566375 14.914375,8.560125 14.935375,7.410375 C14.947625,6.825875 14.728875,6.271125 14.319375,5.849375 C13.915125,5.429375 13.367375,5.191375 12.782875,5.179125 L12.768875,5.179125 L12.723375,5.179125 Z M12.723375,6.491625 C12.742625,6.491625 12.753125,6.491625 12.758375,6.491625 C13.244875,6.500375 13.633375,6.901125 13.622875,7.387625 C13.614125,7.844375 13.190625,8.253875 12.796875,8.253875 C12.774125,8.253875 12.753125,8.252125 12.728625,8.248625 C12.669125,8.248625 11.015375,8.266125 9.921625,9.415875 C9.141125,10.238375 8.798125,11.475625 8.897875,13.092625 C8.927625,13.577375 8.561875,13.995625 8.075375,14.025375 C8.056125,14.027125 8.038625,14.027125 8.019375,14.027125 C7.557375,14.027125 7.168875,13.668375 7.142625,13.202875 C7.007875,11.067875 7.518875,9.379125 8.661625,8.189125 C10.219125,6.563375 12.411875,6.491625 12.723375,6.491625 Z" id="Fill-6" fill="#FFFFFF"></path>
                        <path d="M8.623475,17.08805 C7.426475,17.08805 6.455225,18.06105 6.455225,19.2563 C6.455225,20.4533 7.426475,21.4263 8.623475,21.4263 C9.820475,21.4263 10.791725,20.4533 10.791725,19.2563 C10.791725,18.06105 9.820475,17.08805 8.623475,17.08805 M8.623475,18.40055 C9.097725,18.40055 9.479225,18.7838 9.479225,19.2563 C9.479225,19.73055 9.097725,20.1138 8.623475,20.1138 C8.150975,20.1138 7.767725,19.73055 7.767725,19.2563 C7.767725,18.7838 8.150975,18.40055 8.623475,18.40055" id="Fill-8" fill="#FFFFFF"></path>
                    </g>
                </g>
            </g>
        </g>
    </g>
</svg>