<?xml version="1.0" encoding="UTF-8"?>
<svg width="24px" height="24px" viewBox="0 0 24 24" version="1.1" xmlns="http://www.w3.org/2000/svg" xmlns:xlink="http://www.w3.org/1999/xlink">
    <!-- Generator: Sketch 50.2 (55047) - http://www.bohemiancoding.com/sketch -->
    <title>kanso/submenu/fachartikel_white</title>
    <desc>Created with Sketch.</desc>
    <defs></defs>
    <g id="Website-V03" stroke="none" stroke-width="1" fill="none" fill-rule="evenodd">
        <g id="icons-kanso-&amp;-flavis" transform="translate(-450.000000, -180.000000)" fill="#FFFFFF" fill-rule="nonzero">
            <g id="ic_fachartikel" transform="translate(450.000000, 180.000000)">
                <g id="ico_fach" transform="translate(4.000000, 2.000000)">
                    <path d="M5.73487464,13.2332074 C4.7105996,12.8855273 3.95348837,11.7118611 3.95348837,10.9803922 C3.95348837,10.9754569 3.95352284,10.970527 3.95359162,10.9656026 C1.5291311,9.96203145 0.330534205,7.0970882 0.351341453,2.53176664 L0.352738146,2.22531792 L1.59358635,1.37289782 C1.6907054,0.59894238 2.35623348,0 3.1627907,0 C4.03617123,0 4.74418605,0.702298432 4.74418605,1.56862745 C4.74418605,2.43495647 4.03617123,3.1372549 3.1627907,3.1372549 C2.67086906,3.1372549 2.23140767,2.91445934 1.94136736,2.56504621 L1.53779878,2.84228396 C1.5679142,6.88137936 2.57942242,9.18940068 4.56581645,9.92852602 C4.99988324,9.61116257 5.62751911,9.41176471 6.3255814,9.41176471 C6.95730283,9.41176471 7.53134783,9.57506365 7.95645167,9.84130965 C9.80660476,9.01840518 10.7579703,6.7329882 10.80501,2.84130974 L10.3458933,2.52591234 C10.0567195,2.89773881 9.60307003,3.1372549 9.09302326,3.1372549 C8.21964272,3.1372549 7.51162791,2.43495647 7.51162791,1.56862745 C7.51162791,0.702298432 8.21964272,0 9.09302326,0 C9.87593632,0 10.5259676,0.56434121 10.6522319,1.30529441 L11.9928915,2.22628156 L11.9928915,2.53442595 C11.9928915,6.88706098 10.8918667,9.69303312 8.68448731,10.8140012 C8.69320463,10.8686765 8.69767442,10.9241892 8.69767442,10.9803922 C8.69767442,11.7107578 7.94284541,12.8819878 6.92092115,13.2316285 L6.92092115,15.1005285 C6.92092115,16.9409489 8.4250205,18.4329044 10.2804211,18.4329044 C12.1358217,18.4329044 13.639921,16.9409489 13.639921,15.1005285 L13.639921,12.9374563 L14.8259675,12.9374563 L14.8259675,15.1005285 C14.8259675,17.5906957 12.7908571,19.609375 10.2804211,19.609375 C7.7699851,19.609375 5.73487464,17.5906957 5.73487464,15.1005285 L5.73487464,13.2332074 Z" id="Combined-Shape"  stroke-width="0.5"></path>
                    <path d="M14.2325581,13.5294118 C12.8133148,13.5294118 11.6627907,12.3881768 11.6627907,10.9803922 C11.6627907,9.5726075 12.8133148,8.43137255 14.2325581,8.43137255 C15.6518015,8.43137255 16.8023256,9.5726075 16.8023256,10.9803922 C16.8023256,12.3881768 15.6518015,13.5294118 14.2325581,13.5294118 Z" id="Oval-6"></path>
                </g>
            </g>
        </g>
    </g>
</svg>