<?xml version="1.0" encoding="UTF-8"?>
<svg width="30px" height="50px" viewBox="0 0 30 50" version="1.1" xmlns="http://www.w3.org/2000/svg" xmlns:xlink="http://www.w3.org/1999/xlink">
    <!-- Generator: Sketch 50.2 (55047) - http://www.bohemiancoding.com/sketch -->
    <title>kanso/filter/active</title>
    <desc>Created with Sketch.</desc>
    <defs></defs>
    <g id="Website-V03" stroke="none" stroke-width="1" fill="none" fill-rule="evenodd">
        <g id="icons-kanso-&amp;-flavis" transform="translate(-92.000000, -222.000000)">
            <g id="filter-active" transform="translate(92.000000, 222.000000)">
                <g id="filter/active">
                    <rect id="box" fill="#E1E1E1" opacity="0.8" x="0" y="15" width="20" height="20" rx="5"></rect>
                    <path d="M22.8279863,15.5911842 C22.8279863,16.4652193 22.4320618,17.3168305 21.640201,18.1460433 L21.5169402,18.2693041 L14.5919273,25.5640993 C13.1202613,27.1104691 11.8671229,28.3057129 10.8324745,29.1498665 C9.79782606,29.99402 9.06760681,30.4160905 8.64179482,30.4160905 C8.19357168,30.4160905 7.63703629,30.2050553 6.97217197,29.7829785 C6.30730764,29.3609017 5.8777669,28.9257583 5.68353687,28.4775351 C5.51918839,28.1040158 5.36418021,27.3121668 5.21850769,26.1019643 C5.07283517,24.8917618 5,23.5807288 5,22.1688259 C5,21.3993762 5.32122177,20.6878326 5.96367494,20.0341739 C6.60612811,19.3805151 7.31580411,19.0536907 8.09272422,19.0536907 C8.8322924,19.0536907 9.27303855,19.7297504 9.41497588,21.0818902 C9.42991665,21.2387683 9.44112206,21.3545576 9.44859245,21.4292614 C9.56811862,22.4676451 9.70631868,23.1922616 9.86319678,23.6031328 C10.0200749,24.014004 10.2329777,24.2194365 10.5019116,24.2194365 C10.6139673,24.2194365 10.823135,24.0980446 11.1294208,23.8552571 C11.4357066,23.6124695 11.80175,23.2819099 12.227562,22.8635683 L19.3430688,15.8152947 C19.9406997,15.2176638 20.4748243,14.7657122 20.9454586,14.4594264 C21.4160929,14.1531406 21.8157525,14 22.1444495,14 C22.3909722,14 22.5665236,14.0933784 22.671109,14.2801381 C22.7756944,14.4668977 22.8279863,14.7806492 22.8279863,15.221402 L22.8279863,15.5911842 Z" id="✔︎" fill="#5F656B"></path>
                </g>
            </g>
        </g>
    </g>
</svg>