<svg xmlns="http://www.w3.org/2000/svg" width="55" height="43" viewBox="0 0 55 43">
  <path fill="#C7C7C7" fill-rule="evenodd" d="M392.953125,75.8984375 C389.85936,75.8984375 387.187511,74.9492282 384.9375,73.0507812 C382.687489,71.1523343 381.5625,68.4922046 381.5625,65.0703125 C381.5625,62.1171727 382.664051,59.6328226 384.867188,57.6171875 C387.070324,55.6015524 389.67186,54.59375 392.671875,54.59375 C394.921886,54.59375 396.960928,55.2031189 398.789062,56.421875 C400.617197,57.6406311 402.04687,59.4335819 403.078125,61.8007812 C404.10938,64.1679806 404.625,67.0859202 404.625,70.5546875 C404.625,75.1953357 403.640635,79.5429485 401.671875,83.5976562 C399.703115,87.652364 397.300795,90.8632694 394.464844,93.2304688 C391.628892,95.5976681 389.062511,96.78125 386.765625,96.78125 C385.312493,96.78125 384.128911,96.3007861 383.214844,95.3398438 C382.300777,94.3789014 381.84375,93.2656313 381.84375,92 C381.84375,90.1249906 382.804678,88.5781311 384.726562,87.359375 C390.210965,84.35936 392.953125,80.5390857 392.953125,75.8984375 Z M362.015625,75.8984375 C358.92186,75.8984375 356.250011,74.9492282 354,73.0507812 C351.749989,71.1523343 350.625,68.4922046 350.625,65.0703125 C350.625,62.1171727 351.726551,59.6328226 353.929688,57.6171875 C356.132824,55.6015524 358.73436,54.59375 361.734375,54.59375 C363.984386,54.59375 366.023428,55.2031189 367.851562,56.421875 C369.679697,57.6406311 371.10937,59.4335819 372.140625,61.8007812 C373.17188,64.1679806 373.6875,67.0859202 373.6875,70.5546875 C373.6875,75.1953357 372.703135,79.5429485 370.734375,83.5976562 C368.765615,87.652364 366.363295,90.8632694 363.527344,93.2304688 C360.691392,95.5976681 358.125011,96.78125 355.828125,96.78125 C354.374993,96.78125 353.191411,96.3007861 352.277344,95.3398438 C351.363277,94.3789014 350.90625,93.2656313 350.90625,92 C350.90625,90.0781154 351.867178,88.5312559 353.789062,87.359375 C359.273465,84.3124848 362.015625,80.4922105 362.015625,75.8984375 Z" transform="translate(-350 -54)"/>
</svg>
