<?xml version="1.0" encoding="UTF-8"?>
<svg width="53px" height="53px" viewBox="0 0 53 53" version="1.1" xmlns="http://www.w3.org/2000/svg" xmlns:xlink="http://www.w3.org/1999/xlink">
    <!-- Generator: Sketch 50.2 (55047) - http://www.bohemiancoding.com/sketch -->
    <title>kanso/citation/icon-citation</title>
    <desc>Created with Sketch.</desc>
    <defs></defs>
    <g id="Website-V03" stroke="none" stroke-width="1" fill="none" fill-rule="evenodd" opacity="0.2">
        <g id="icons-kanso-&amp;-flavis" transform="translate(-567.000000, -162.000000)" fill="#373E46">
            <g id="citation" transform="translate(567.000000, 162.000000)">
                <g id="ic_citation">
                    <path d="M53,13.2472885 C46.0696331,16.7180217 42.6045016,20.796072 42.6045016,25.4815618 C45.5584285,25.8286351 48.0010622,27.0578347 49.9324759,29.1691974 C51.8638896,31.2805601 52.829582,33.724498 52.829582,36.5010846 C52.829582,39.4512078 51.8922923,41.9385293 50.0176849,43.9631236 C48.1430774,45.987718 45.7856519,47 42.9453376,47 C39.7641856,47 37.009122,45.6840334 34.6800643,43.0520607 C32.3510066,40.4200881 31.1864952,37.2241692 31.1864952,33.4642082 C31.1864952,22.1843254 37.3782875,13.3630108 49.7620579,7 L53,13.2472885 Z M21.8135048,13.2472885 C14.8263316,16.7180217 11.3327974,20.796072 11.3327974,25.4815618 C14.3435306,25.8286351 16.814567,27.0578347 18.7459807,29.1691974 C20.6773944,31.2805601 21.6430868,33.724498 21.6430868,36.5010846 C21.6430868,39.4512078 20.6915958,41.9385293 18.7885852,43.9631236 C16.8855746,45.987718 14.5139477,47 11.6736334,47 C8.49248141,47 5.75161922,45.6840334 3.45096463,43.0520607 C1.15031004,40.4200881 0,37.2241692 0,33.4642082 C0,22.1843254 6.1633896,13.3630108 18.4903537,7 L21.8135048,13.2472885 Z" id="ic_citations"></path>
                </g>
            </g>
        </g>
    </g>
</svg>