<?xml version="1.0" encoding="utf-8"?>
<!-- Generator: Adobe Illustrator 21.1.0, SVG Export Plug-In . SVG Version: 6.00 Build 0)  -->
<svg version="1.1" id="Ebene_1" xmlns="http://www.w3.org/2000/svg" xmlns:xlink="http://www.w3.org/1999/xlink" x="0px" y="0px"
	 viewBox="0 0 219 55" style="enable-background:new 0 0 219 55;" xml:space="preserve">
<title>logo-kanso</title>
<desc>Created with Sketch.</desc>
<g id="Website-V03">
	<g id="icons-kanso-_x26_-flavis" transform="translate(-230.000000, -427.000000)">
		<g id="logo-kanso" transform="translate(230.000000, 427.000000)">
			<path id="bubble" fill="#ECA105" d="M200.9,19.7c-2.9,3.4-3.6,7.5-3.4,11.9c0.3,6.6-5,11.4-11.1,10.2c-4.9-0.9-8.2-5.6-7.6-10.5
				c0.3-5,4.5-8.9,9.6-8.7c9.3,0.1,15.3-5.5,15.7-14.9c0-2.8,1.7-5.4,4.2-6.6c2.9-1.7,5.9-1.1,8.4,1.5c2.3,2.1,2.7,5.6,1,8.2
				c-1.3,2.4-3.7,3.9-6.4,4.1c-2.3,0.4-4.5,1-6.7,1.8C202.9,17.3,201.7,19,200.9,19.7z"/>
		</g>
	</g>
</g>
<path id="kanso" fill="#363E46" d="M13,24.6c2.4-2.3,4.5-4.2,6.5-6.1c1.9-1.8,3.8-3.8,5.7-5.5c0.9-0.9,2-1.6,3.1-2.2
	c2-1.2,4.6-0.7,6.1,1.1c1.6,1.8,1.9,4.5,0.6,6.5c-0.8,1-1.6,1.9-2.5,2.8c-2.9,2.7-6,5.4-9.2,8.2c3.4,4.1,6.7,7.9,10,11.8
	c1.1,1.4,2.4,2.7,3.5,4.1c2.2,2.9,2,6.1-0.5,8.2c-2.4,2-5.5,1.9-7.9-0.9c-4.5-5.1-8.7-10.5-12.9-15.7c-0.7-1-1.6-1.8-2.6-2.4v6.1
	c0,2.4,0.1,4.9,0,7.3c-0.1,3.8-2.3,6.2-5.7,6.3c-3.6,0.1-5.9-2.3-6-6.3C1,42.7,1,37.5,1,32.3V16.4c0-0.8-0.1-1.5,0-2.2
	C1.2,11,3.7,8.6,6.8,8.5c3.2,0,5.9,2.6,5.9,5.9c0.1,2.9,0,5.7,0.1,8.6C12.8,23.5,12.9,24,13,24.6z M205.5,17.8
	c7.3,8,7.5,22.4-1.5,30.9c-8.7,8.2-23.5,8-31.9-0.1c-8.6-8.4-9.1-22-1.3-31.2c8.4-9.6,22.8-9.8,30.2-3.6c-1.8,4.7-6.6,7.5-11.6,6.8
	c-5.7-0.8-10.5,2.7-12.1,8.5c-1.6,5.9,1.2,12,6.3,14.1c5.2,2.2,11.2,0.3,14.2-4.5c1.4-2.3,1.9-5,1.5-7.6c-1-4.6,0.6-9.3,4.2-12.3
	C204.5,17.8,205.5,17.8,205.5,17.8z M81,17.8v29c0,2.3-0.3,4.1-1,5.5c-0.6,1.4-2.2,2.1-4.7,2.1c-1.6,0-2.8-0.4-3.7-1.2
	s-1.5-2.1-1.9-3.7c-3.1,3.6-6.8,5.5-11.2,5.5c-3.6,0-6.9-1-9.9-2.9c-3-1.9-5.3-4.6-7-8.1c-1.7-3.4-2.5-7.3-2.5-11.6
	c0-4.2,0.9-8,2.6-11.5s4.1-6.2,7-8.2c3-2,6.2-3,9.8-3c2.2,0,4.3,0.5,6.3,1.4c2,0.9,3.6,2.2,4.9,4c0.2-1.4,0.8-2.6,1.9-3.5
	c1.1-0.9,2.3-1.4,3.8-1.4c2.5,0,4.1,0.7,4.7,2.1C80.7,13.6,81,15.5,81,17.8z M50.9,32.4c0,2,0.4,3.9,1.1,5.7
	c0.7,1.8,1.8,3.3,3.1,4.4c1.4,1.1,3.1,1.7,5.1,1.7c2.9,0,5.1-1.2,6.7-3.6c1.6-2.4,2.4-5.1,2.4-8.3c0-2-0.3-3.9-1-5.7
	c-0.7-1.8-1.7-3.4-3.1-4.5c-1.4-1.1-3-1.8-5-1.8s-3.7,0.6-5.1,1.7c-1.4,1.2-2.5,2.7-3.2,4.5C51.3,28.5,50.9,30.4,50.9,32.4z
	 M87.7,47.9V16.6c0-1.9,0.5-3.5,1.6-4.7c1.1-1.2,2.5-1.8,4.2-1.8c1.5,0,2.7,0.4,3.7,1.2c0.9,0.8,1.5,1.8,1.7,3.2
	c2.3-3.2,6.1-4.8,11.3-4.8c3.1,0,5.8,0.6,8.3,1.9c2.4,1.3,4.4,3.1,5.7,5.5c1.4,2.4,2.1,5.2,2.1,8.5v22.5c0,1.3-0.3,2.4-0.8,3.4
	s-1.2,1.8-2.1,2.3s-1.9,0.8-3,0.8c-1.8,0-3.2-0.6-4.2-1.8c-1.1-1.2-1.6-2.8-1.6-4.7V27.4c0-2.6-0.7-4.6-2.1-6s-3.3-2.1-5.6-2.1
	c-1.5,0-2.9,0.4-4,1.1c-1.1,0.7-2,1.7-2.6,2.8c-0.6,1.2-0.9,2.6-0.9,4.1v20.5c0,1.3-0.3,2.4-0.8,3.4s-1.2,1.8-2.1,2.3
	s-1.9,0.8-3,0.8c-1.8,0-3.2-0.6-4.2-1.8C88.3,51.4,87.7,49.8,87.7,47.9z M162.6,18.1c0,1.4-0.5,2.6-1.4,3.6c-0.9,1.1-2,1.6-3.4,1.6
	c-0.6,0-1.8-0.4-3.5-1.2c-1.7-0.8-3-1.3-4-1.7c-0.9-0.4-2-0.6-3.1-0.6c-1.1,0-2.1,0.3-2.8,0.8c-0.8,0.6-1.1,1.4-1.1,2.4
	c0,1.1,1.2,2.2,3.5,3.2s4.8,2.1,7.4,3.1c2.6,1.1,4.8,2.5,6.7,4.3c1.8,1.8,2.8,4.2,2.8,7.3c0,2.6-0.7,5-2.1,7.1
	c-1.4,2.1-3.4,3.7-5.9,4.9c-2.6,1.2-5.5,1.8-8.7,1.8c-2.3,0-4.7-0.4-7.3-1.2c-2.6-0.8-4.7-1.9-6.5-3.3c-1.8-1.4-2.6-2.9-2.6-4.6
	c0-1.1,0.5-2.2,1.4-3.4s2.2-1.8,3.6-1.8c1.1,0,2,0.2,2.8,0.5c0.8,0.3,1.8,0.8,3,1.5c1.2,0.7,2.3,1.2,3.1,1.5c0.9,0.3,2,0.5,3.2,0.5
	c1.7,0,2.9-0.3,3.6-0.8s1-1.4,1-2.5c0-1.1-1.1-2.2-3.4-3.2c-2.3-1-4.7-2-7.4-3.1c-2.7-1.1-5-2.6-6.8-4.4s-2.7-4.3-2.7-7.3
	c0-2.7,0.7-5.1,2-7.1c1.4-2.1,3.2-3.7,5.7-4.8c2.4-1.2,5.2-1.7,8.2-1.7c2.2,0,4.4,0.3,6.6,1c2.3,0.6,4.2,1.6,5.7,2.9
	C161.8,14.8,162.6,16.3,162.6,18.1z"/>
</svg>
