<?xml version="1.0" encoding="UTF-8"?>
<svg width="40px" height="40px" viewBox="0 0 40 40" version="1.1" xmlns="http://www.w3.org/2000/svg" xmlns:xlink="http://www.w3.org/1999/xlink">
    <!-- Generator: Sketch 52.2 (67145) - http://www.bohemiancoding.com/sketch -->
    <title>ic/flavis/navi/nieren</title>
    <desc>Created with Sketch.</desc>
    <g id="ic/flavis/navi/nieren" stroke-width="1" fill="none" fill-rule="evenodd">
        <rect id="Rectangle-4" opacity="0" x="0" y="0" width="40" height="40"></rect>
        <g id="Group-2" transform="translate(5.000000, 10.000000)" stroke-linecap="round">
            <path d="M9.56641502,8.07309596 C11.0034605,2.69103199 9.87929762,-2.66453526e-14 6.19392641,-2.66453526e-14 C0.665869588,-2.55680293e-14 -0.326369593,5.84990392 0.0810925162,10.2557719 C0.488554625,14.6616399 1.63434507,16.4511017 4.08009334,16.6630321 C5.71059218,16.8043191 7.22232691,15.2890337 8.61529754,12.1171758" id="Path-3"></path>
            <path d="M8.34314876,6 C7.75882736,6.75171377 7.46666667,7.58602367 7.46666667,8.50292969 C7.46666667,8.50292969 13.9848564,7.33276367 13.609003,21.8408203" id="Path-4"></path>
            <path d="M5.6,13.0457353 C6.4702908,11.4342444 7.39800347,10.7748206 8.38313802,11.0674638 C9.86083984,11.5064286 11.4358682,12.9773759 10.8003255,21.1746415" id="Path-5"></path>
            <path d="M8.02603697,3 C6.88467899,5.17446321 6.076,5.17446321 5.6,3" id="Path-6" stroke-width="0.75"></path>
            <path d="M3.23096524,4 C4.82600175,5.45955882 4.68234667,6.41268382 2.8,6.859375" id="Path-7" stroke-width="0.75"></path>
            <path d="M1.86666667,12.1751408 C3.64370742,11.6472412 4.20454955,12.3127157 3.54919304,14.1715642" id="Path-8" stroke-width="0.75"></path>
            <path d="M1.86666667,8 C4.58919271,8.47688802 4.58919271,9.28474935 1.86666667,10.423584" id="Path-9" stroke-width="0.75"></path>
            <path d="M8.4,8.11181641 C10.2935795,7.37060547 11.9181905,7 13.2738328,7" id="Path-10"></path>
            <path d="M12.5148136,8.70283508 C11.3093384,8.34223938 9.93773387,8.22204081 8.4,8.34223938" id="Path-11"></path>
        </g>
        <g id="Group" transform="translate(28.000000, 21.000000) scale(-1, 1) translate(-28.000000, -21.000000) translate(21.000000, 10.000000)" stroke-linecap="round">
            <path d="M9.56641502,8.07309596 C11.0034605,2.69103199 9.87929762,-2.66453526e-14 6.19392641,-2.66453526e-14 C0.665869588,-2.55680293e-14 -0.326369593,5.84990392 0.0810925162,10.2557719 C0.488554625,14.6616399 1.63434507,16.4511017 4.08009334,16.6630321 C5.71059218,16.8043191 7.22232691,15.2890337 8.61529754,12.1171758" id="Path-3"></path>
            <path d="M8.34314876,6 C7.75882736,6.75171377 7.46666667,7.58602367 7.46666667,8.50292969 C7.46666667,8.50292969 13.9848564,7.33276367 13.609003,21.8408203" id="Path-4"></path>
            <path d="M5.6,13.0457353 C6.4702908,11.4342444 7.39800347,10.7748206 8.38313802,11.0674638 C9.86083984,11.5064286 11.4358682,12.9773759 10.8003255,21.1746415" id="Path-5"></path>
            <path d="M8.02603697,3 C6.88467899,5.17446321 6.076,5.17446321 5.6,3" id="Path-6" stroke-width="0.75"></path>
            <path d="M3.23096524,4 C4.82600175,5.45955882 4.68234667,6.41268382 2.8,6.859375" id="Path-7" stroke-width="0.75"></path>
            <path d="M1.86666667,12.1751408 C3.64370742,11.6472412 4.20454955,12.3127157 3.54919304,14.1715642" id="Path-8" stroke-width="0.75"></path>
            <path d="M1.86666667,8 C4.58919271,8.47688802 4.58919271,9.28474935 1.86666667,10.423584" id="Path-9" stroke-width="0.75"></path>
            <path d="M7.46666667,8.11181641 C9.36024618,7.37060547 10.9848571,7 12.3404995,7" id="Path-10"></path>
            <path d="M12.5148136,8.70283508 C11.3093384,8.34223938 9.93773387,8.22204081 8.4,8.34223938" id="Path-11"></path>
        </g>
    </g>
</svg>