<?xml version="1.0" encoding="UTF-8"?>
<svg width="40px" height="40px" viewBox="0 0 40 40" version="1.1" xmlns="http://www.w3.org/2000/svg" xmlns:xlink="http://www.w3.org/1999/xlink">
    <!-- Generator: Sketch 52.2 (67145) - http://www.bohemiancoding.com/sketch -->
    <title>ic/flavis/navi/baby</title>
    <desc>Created with Sketch.</desc>
    <g id="ic/flavis/navi/baby" stroke="none" stroke-width="1" fill="none" fill-rule="evenodd">
        <rect id="Rectangle-4"  opacity="0" x="0" y="0" width="40" height="40"></rect>
        <g id="Group" transform="translate(20.195340, 20.262720) rotate(-28.000000) translate(-20.195340, -20.262720) translate(10.695340, 5.762720)" >
            <path d="M3.05394826,15.3442702 C2.91073619,9.44201053 5.74449531,6.65803769 11.7923507,6.65803769 C17.2364793,6.65803769 17.2325277,12.3318435 13.0649467,15.8806688 C8.89736557,19.4294942 14.3195078,21.9458822 14.3195078,25.1748344 C14.3195078,28.4037866 12.3585253,29.4549067 8.92137137,28.0461699 C7.10472414,27.3016069 5.74524731,25.5350848 4.79423805,23.3958367" id="Path"></path>
            <path d="M15.0989766,6.15847614 C13.5260937,4.93177068 15.5916077,0.0480071897 17.8107868,1.74576228 C20.029966,3.44351738 16.6718595,7.38518161 15.0989766,6.15847614 Z" id="Path-13"></path>
            <path d="M11.6880383,0.946695354 C14.0090607,0.946695354 13.3391605,4.94669535 11.6880383,4.94669535 C10.036916,4.94669535 9.36701578,0.946695354 11.6880383,0.946695354 Z" id="Path-14"></path>
            <path d="M6.03801326,1.36606771 C7.800024,1.00288916 9.19439424,3.58792181 7.85329625,4.24249886 C6.51219826,4.8970759 4.27600253,1.72924626 6.03801326,1.36606771 Z" id="Path-15" transform="translate(6.888424, 2.831277) rotate(23.000000) translate(-6.888424, -2.831277) "></path>
            <path d="M2.61588763,4.02659138 C4.12506183,3.10432876 5.91827686,6.01199282 4.81748045,6.7217822 C3.71668404,7.43157159 1.10671344,4.948854 2.61588763,4.02659138 Z" id="Path-16"></path>
            <path d="M0.72573497,7.72661214 C1.35976818,6.98452854 3.03402932,8.7590896 2.48664511,9.39857886 C1.9392609,10.0380681 0.0917017571,8.46869574 0.72573497,7.72661214 Z" id="Path-17"></path>
        </g>
        <path d="M16.5,22.6074431 C16.3880617,22.6882416 16.2547336,22.7878376 16.1043069,22.9051189 C15.5949907,23.3022109 15.0854831,23.7536465 14.6113403,24.2493969 C13.2855547,25.6356014 12.5,27.0836276 12.5,28.5 C12.5,31.5443263 13.940663,32.998291 16.4167,32.998291 C18.9450312,32.998291 20.5,31.507228 20.5,28.5 C20.5,27.0836276 19.7144453,25.6356014 18.3886597,24.2493969 C17.9145169,23.7536465 17.4050093,23.3022109 16.8956931,22.9051189 C16.7452664,22.7878376 16.6119383,22.6882416 16.5,22.6074431 Z" id="Oval"></path>
    </g>
</svg>