<?xml version="1.0" encoding="UTF-8"?>
<svg width="40px" height="40px" viewBox="0 0 40 40" version="1.1" xmlns="http://www.w3.org/2000/svg" xmlns:xlink="http://www.w3.org/1999/xlink">
    <!-- Generator: Sketch 50.2 (55047) - http://www.bohemiancoding.com/sketch -->
    <title>kanso/menu/ketogene-diaet/white</title>
    <desc>Created with Sketch.</desc>
    <defs></defs>
    <g id="Website-V03" stroke="none" stroke-width="1" fill="none" fill-rule="evenodd">
        <g id="icons-kanso-&amp;-flavis" transform="translate(-254.000000, -272.000000)">
            <g id="nav3_white" transform="translate(254.000000, 272.000000)">
                <g id="ic/navi/03">
                    <rect id="Rectangle-4" fill="#D8D8D8" opacity="0" x="0" y="0" width="40" height="40"></rect>
                    <g id="Group-46" stroke-width="1" transform="translate(5.000000, 5.000000)">
                        <path d="M15.5,4.5835 C15.5,4.5835 14.25,2.3335 11.833,3.4165 C11.833,3.4165 9.75,3.4165 9.583,5.0005 C9.417,6.5835 10.583,6.8335 10.583,6.8335 C10.583,6.8335 10.333,9.2505 13.167,9.0005 C13.167,9.0005 13,12.0835 16.167,11.2505" id="Stroke-2"  stroke-linecap="round"></path>
                        <path d="M12.8672,6.1665 C12.8672,6.1665 16.1672,5.2495 16.1672,8.2495 C16.1672,8.2495 20.1672,8.3335 18.5832,11.7495 C18.5832,11.7495 20.0002,14.1665 18.1672,15.0835 C16.3332,15.9995 15.0002,14.9165 14.5832,13.4995" id="Stroke-4"  stroke-linecap="round"></path>
                        <path d="M17.75,5.75 C17.75,5.75 19.813,5.875 19.875,7.562 C19.875,7.562 22.187,8.438 20.625,10.187 C20.625,10.187 21.898,12.687 19.105,13.25" id="Stroke-6"  stroke-linecap="round"></path>
                        <path d="M18.0625,4.1875 C18.0625,4.1875 20.0625,2.6255 21.6875,4.1875 C23.3125,5.7495 22.2495,7.2575 22.2495,7.2575" id="Stroke-8"  stroke-linecap="round"></path>
                        <path d="M7.1875,6.0347 C7.1875,6.0347 6.5005,8.1877 9.0625,8.6877" id="Stroke-10"  stroke-linecap="round"></path>
                        <path d="M11.875,11.3931 C11.875,11.3931 10.438,12.8121 8.75,11.7501 C7.063,10.6871 7.887,8.2171 7.887,8.2171" id="Stroke-12"  stroke-linecap="round"></path>
                        <path d="M15,14.6875 C15,14.6875 12.146,15.5645 10.854,12.0005" id="Stroke-14"  stroke-linecap="round"></path>
                        <path d="M19.1055,14.1875 C19.1055,14.1875 20.4375,15.4405 21.6255,14.7825 C22.8125,14.1255 22.5005,12.8755 22.2505,12.4375" id="Stroke-16"  stroke-linecap="round"></path>
                        <path d="M23,10.7285 C23,10.7285 24.562,9.8745 24.5,8.6875 C24.437,7.4995 22.59,6.0345 22.59,6.0345" id="Stroke-18"  stroke-linecap="round"></path>
                        <path d="M24.0918,9.8032 C24.0918,9.8032 25.9948,12.4112 22.5908,13.7052" id="Stroke-20"  stroke-linecap="round"></path>
                        <path d="M7.6855,10.1812 C7.6855,10.1812 4.5625,10.4372 4.1875,8.6872 C3.8125,6.9372 5.5625,6.3752 5.5625,6.3752" id="Stroke-22"  stroke-linecap="round"></path>
                        <path d="M7.6855,4 C7.6855,4 5.9995,2.875 4.8125,4.312 C3.6245,5.75 4.6185,6.993 4.6185,6.993" id="Stroke-24"  stroke-linecap="round"></path>
                        <path d="M11.833,3.4165 C11.833,3.4165 10.187,1.5625 8.562,1.7495 C6.937,1.9375 6.312,3.5815 6.312,3.5815" id="Stroke-26"  stroke-linecap="round"></path>
                        <path d="M14.5527,3.5811 C14.5527,3.5811 15.1087,1.2501 12.8667,0.9371 C10.6247,0.6251 10.4197,2.2591 10.4197,2.2591" id="Stroke-28"  stroke-linecap="round"></path>
                        <path d="M19.1055,3.6528 C19.1055,3.6528 18.0225,-0.1462 14.5115,2.2388" id="Stroke-30"  stroke-linecap="round"></path>
                        <path d="M4.6807,9.5 C4.6807,9.5 4.1247,12.536 5.6247,13.706 C7.1247,14.875 8.9377,14.927 11.8747,13.745" id="Stroke-32"  stroke-linecap="round"></path>
                        <path d="M7.6855,14.5698 C7.6855,14.5698 6.8315,17.0628 7.1035,17.5628 C7.3745,18.0628 7.8305,18.0628 8.2275,17.5628 C8.6245,17.0628 8.9735,14.7458 12.1745,14.0288" id="Stroke-34"  stroke-width="0.75" stroke-linecap="round"></path>
                        <path d="M20.0625,25.75 C20.0625,25.75 18.8755,28.313 17.7495,28.813 C16.6245,29.313 14.5005,31 13.9375,31 C13.3755,31 12.9835,30.625 12.8675,29.188 C12.7505,27.75 11.7495,25.812 11.4995,24.563 C11.2495,23.312 11.4205,20 12.8675,19.313 C14.3125,18.625 16.9165,17.938 19.4585,18.25 C21.9995,18.563 29.0005,18.313 29.3755,19.75 C29.7505,21.188 28.9375,23.172 27.0625,24.586 C25.1875,26 21.4375,27.5 20.0625,25.75 Z" id="Stroke-36"  stroke-linecap="round"></path>
                        <path d="M21.4375,22.9375 C21.4375,22.9375 19.6875,23.4375 20.0625,25.7505" id="Stroke-38"  stroke-width="0.75" stroke-linecap="round"></path>
                        <path d="M15.9209,19.6592 C15.7109,19.6592 14.6269,19.7012 13.8219,20.5402 C13.2339,21.1542 12.9689,21.9912 13.0329,23.0272 C13.0669,23.5982 13.5439,24.0472 14.1179,24.0472 L14.1439,24.0472 L14.1919,24.0442 C14.7839,24.0072 15.2399,23.4902 15.2029,22.8922 C15.1859,22.6152 15.2039,22.2422 15.3909,22.0472 C15.5409,21.8882 15.8019,21.8412 15.9119,21.8332 L15.9489,21.8342 C16.5159,21.8342 17.0039,21.3462 17.0159,20.7662 C17.0259,20.1672 16.5479,19.6712 15.9479,19.6592 L15.9419,19.6592 L15.9209,19.6592 Z M15.9209,20.4092 L15.9339,20.4092 C16.1209,20.4122 16.2699,20.5662 16.2659,20.7522 C16.2619,20.9282 16.0999,21.0842 15.9489,21.0842 C15.9409,21.0842 15.9319,21.0842 15.9229,21.0822 C15.8999,21.0822 15.2659,21.0892 14.8479,21.5302 C14.5479,21.8452 14.4159,22.3192 14.4549,22.9392 C14.4659,23.1252 14.3249,23.2842 14.1389,23.2962 C14.1319,23.2972 14.1249,23.2972 14.1179,23.2972 C13.9409,23.2972 13.7919,23.1592 13.7809,22.9812 C13.7309,22.1622 13.9269,21.5152 14.3639,21.0592 C14.9609,20.4362 15.8009,20.4092 15.9209,20.4092 Z" id="Fill-40" fill="#FFFFFF"></path>
                        <path d="M14.3496,24.2236 C13.7546,24.2236 13.2716,24.7066 13.2716,25.3016 C13.2716,25.8956 13.7546,26.3796 14.3496,26.3796 C14.9446,26.3796 15.4276,25.8956 15.4276,25.3016 C15.4276,24.7066 14.9446,24.2236 14.3496,24.2236 M14.3496,24.9736 C14.5316,24.9736 14.6776,25.1196 14.6776,25.3016 C14.6776,25.4826 14.5316,25.6296 14.3496,25.6296 C14.1676,25.6296 14.0216,25.4826 14.0216,25.3016 C14.0216,25.1196 14.1676,24.9736 14.3496,24.9736" id="Fill-42" fill="#FFFFFF"></path>
                        <path d="M3.625,19.125 C3.625,19.125 4.906,21.344 5.562,21.031 C6.219,20.719 5.031,19.187 4.844,18.656 C4.656,18.125 4.406,16.719 3.969,16.594 C3.531,16.469 0.187,19.156 0.156,19.594 C0.125,20.031 0.594,20.219 1.031,20.062 C1.469,19.906 2.406,19.469 2.188,19.937 C1.969,20.406 1.187,22.875 2,24.719 C2.813,26.562 4.531,28.125 6.5,28.344 C8.469,28.563 8.135,27.594 8.083,27.469 C8.031,27.344 7.414,26.844 5.91,26.687 C4.406,26.531 2.938,24.844 2.781,23.75 C2.625,22.656 3.063,19.625 3.625,19.125 Z" id="Stroke-44"  stroke-width="0.75" stroke-linecap="round" stroke-linejoin="round"></path>
                    </g>
                </g>
            </g>
        </g>
    </g>
</svg>