<?xml version="1.0" encoding="UTF-8"?>
<svg width="40px" height="40px" viewBox="0 0 40 40" version="1.1" xmlns="http://www.w3.org/2000/svg" xmlns:xlink="http://www.w3.org/1999/xlink">
    <!-- Generator: Sketch 50.2 (55047) - http://www.bohemiancoding.com/sketch -->
    <title>kanso/menu/oxidationsstoerung/white</title>
    <desc>Created with Sketch.</desc>
    <defs></defs>
    <g id="Website-V03" stroke="none" stroke-width="1" fill="none" fill-rule="evenodd">
        <g id="icons-kanso-&amp;-flavis" transform="translate(-254.000000, -222.000000)">
            <g id="nav2_white" transform="translate(254.000000, 222.000000)">
                <g id="ic/navi/02">
                    <rect id="Rectangle-4" fill="#D8D8D8" opacity="0" x="0" y="0" width="40" height="40"></rect>
                    <g id="Group-10" stroke-width="1" transform="translate(7.000000, 12.000000)">
                        <path d="M13.4453,11.6729 C13.4453,11.6729 11.6743,15.4929 9.9983,16.2389 C8.3203,16.9839 5.1523,19.4999 4.3133,19.4999 C3.4743,19.4999 2.8913,18.9409 2.7163,16.7979 C2.5433,14.6539 1.0513,11.7659 0.6793,9.9019 C0.3063,8.0389 0.5613,3.0999 2.7163,2.0749 C4.8733,1.0499 8.7563,0.0249 12.5453,0.4909 C16.3343,0.9569 26.7703,0.5839 27.3303,2.7269 C27.8883,4.8699 26.6773,7.8299 23.8823,9.9379 C21.0873,12.0459 15.4953,14.2819 13.4453,11.6729 Z" id="Stroke-2"  stroke-linecap="round"></path>
                        <path d="M15.4951,7.4795 C15.4951,7.4795 12.8871,8.2255 13.4451,11.6725" id="Stroke-4"  stroke-width="0.75" stroke-linecap="round"></path>
                        <path d="M7.2705,2.9595 C6.9845,2.9595 5.5035,3.0175 4.4085,4.1605 C3.6045,4.9985 3.2425,6.1525 3.3325,7.5915 C3.3715,8.2485 3.9195,8.7655 4.5825,8.7655 L4.6095,8.7655 L4.6665,8.7625 C5.3495,8.7195 5.8755,8.1245 5.8335,7.4355 C5.7895,6.7265 5.9165,6.2095 6.2135,5.8975 C6.5705,5.5215 7.1395,5.4715 7.2555,5.4645 L7.3125,5.4665 C7.9515,5.4665 8.5225,4.8915 8.5345,4.2345 C8.5415,3.9005 8.4165,3.5835 8.1825,3.3425 C7.9515,3.1025 7.6385,2.9665 7.3045,2.9595 L7.2965,2.9595 L7.2705,2.9595 Z M7.2705,3.7095 C7.2815,3.7095 7.2875,3.7095 7.2905,3.7095 C7.5685,3.7145 7.7905,3.9435 7.7845,4.2215 C7.7795,4.4825 7.5375,4.7165 7.3125,4.7165 C7.2995,4.7165 7.2875,4.7155 7.2735,4.7135 C7.2395,4.7135 6.2945,4.7235 5.6695,5.3805 C5.2235,5.8505 5.0275,6.5575 5.0845,7.4815 C5.1015,7.7585 4.8925,7.9975 4.6145,8.0145 C4.6035,8.0155 4.5935,8.0155 4.5825,8.0155 C4.3185,8.0155 4.0965,7.8105 4.0815,7.5445 C4.0045,6.3245 4.2965,5.3595 4.9495,4.6795 C5.8395,3.7505 7.0925,3.7095 7.2705,3.7095 Z" id="Fill-6" fill="#FFFFFF"></path>
                        <path d="M4.9277,9.7646 C4.2437,9.7646 3.6887,10.3206 3.6887,11.0036 C3.6887,11.6876 4.2437,12.2436 4.9277,12.2436 C5.6117,12.2436 6.1667,11.6876 6.1667,11.0036 C6.1667,10.3206 5.6117,9.7646 4.9277,9.7646 M4.9277,10.5146 C5.1987,10.5146 5.4167,10.7336 5.4167,11.0036 C5.4167,11.2746 5.1987,11.4936 4.9277,11.4936 C4.6577,11.4936 4.4387,11.2746 4.4387,11.0036 C4.4387,10.7336 4.6577,10.5146 4.9277,10.5146" id="Fill-8" fill="#FFFFFF"></path>
                    </g>
                </g>
            </g>
        </g>
    </g>
</svg>