<?xml version="1.0" encoding="UTF-8"?>
<svg width="40px" height="40px" viewBox="0 0 40 40" version="1.1" xmlns="http://www.w3.org/2000/svg" xmlns:xlink="http://www.w3.org/1999/xlink">
    <!-- Generator: Sketch 50.2 (55047) - http://www.bohemiancoding.com/sketch -->
    <title>kanso/menu/produkte/white</title>
    <desc>Created with Sketch.</desc>
    <defs></defs>
    <g id="Website-V03" stroke="none" stroke-width="1" fill="none" fill-rule="evenodd">
        <g id="icons-kanso-&amp;-flavis" transform="translate(-254.000000, -322.000000)">
            <g id="nav4_white" transform="translate(254.000000, 322.000000)">
                <g id="ic/navi/04">
                    <rect id="Rectangle-4" fill="#D8D8D8" opacity="0" x="0" y="0" width="40" height="40"></rect>
                    <g id="Group-22" stroke-width="1" transform="translate(6.000000, 8.000000)"  stroke-linecap="round">
                        <path d="M9.2109,18.1548 C8.5859,18.4448 7.5869,18.6878 5.9879,18.7268 C1.7269,18.8308 1.4399,17.1938 1.4399,17.1938 L1.1539,10.0458 C1.1539,10.0458 0.6599,9.2928 1.1539,8.9288" id="Stroke-2"></path>
                        <path d="M10.459,9.0586 C10.849,9.4226 10.459,9.8116 10.459,9.8116 L10.349,13.6776" id="Stroke-4"></path>
                        <path d="M0.791,7.8369 C0.791,7.8369 2.147,7.3169 5.783,7.3689 C9.419,7.4209 10.77,7.5769 10.797,7.8369 C10.823,8.0969 10.797,8.8249 10.797,8.8249 C10.797,8.8249 8.021,9.1629 5.783,9.1359 C3.546,9.1099 0.868,8.8249 0.791,8.7729 C0.713,8.7209 0.791,7.8369 0.791,7.8369 Z" id="Stroke-6"></path>
                        <path d="M1.1543,10.0459 C1.1543,10.0459 2.6623,10.8259 8.6393,10.4099" id="Stroke-8" stroke-width="0.75"></path>
                        <path d="M15.4414,2.9106 C15.4414,2.9106 16.9184,3.3066 19.5824,2.9106 L19.5824,0.6066 C19.5824,0.6066 18.2504,-0.0054 15.4414,0.4626 L15.4414,2.9106 Z" id="Stroke-10" stroke-linejoin="round"></path>
                        <path d="M21.6758,13.0098 L21.8498,3.5588 C21.8498,3.5588 21.5258,2.4788 19.5818,2.4428" id="Stroke-12" stroke-linejoin="round"></path>
                        <path d="M15.4414,2.4424 C15.4414,2.4424 12.9934,2.6944 12.9934,3.5584 C12.9934,3.8024 13.1074,8.8174 13.2084,13.1464" id="Stroke-14" stroke-linejoin="round"></path>
                        <path d="M12.9931958,3.5586 C12.9931958,3.5586 12.9572,4.6386 19.5822,4.2786" id="Stroke-16" stroke-width="0.75" stroke-linejoin="round"></path>
                        <path d="M9.418,16.5283 C9.418,16.5283 8.657,13.3413 12.366,13.2943 C16.076,13.2463 19.405,13.3893 20.642,13.2943 C21.878,13.1993 24.636,12.5703 25.064,14.9063 C25.492,17.2413 25.017,20.4273 25.064,21.2363 C25.111,22.0443 25.064,23.3763 23.066,23.4713 C21.069,23.5663 15.695,23.3763 14.411,23.4713 C13.128,23.5663 10.179,23.4713 9.703,22.4723 C9.228,21.4743 9.461,17.5523 9.418,16.5283 Z" id="Stroke-18" stroke-linejoin="round"></path>
                        <path d="M10.8564,16.6089 C10.8564,16.6089 10.2744,21.1399 11.3494,21.7009 C12.4244,22.2619 21.7014,22.2619 22.3284,22.1329 C22.9564,22.0039 23.9414,21.8739 23.8074,19.8889 C23.6724,17.9029 24.0764,15.7029 23.5384,15.0549 C23.0014,14.4079 20.6004,14.3649 17.2964,14.5809" id="Stroke-20" stroke-width="0.75" stroke-linejoin="round"></path>
                    </g>
                </g>
            </g>
        </g>
    </g>
</svg>