<?xml version="1.0" encoding="UTF-8"?>
<svg width="50px" height="50px" viewBox="0 0 50 50" version="1.1" xmlns="http://www.w3.org/2000/svg" xmlns:xlink="http://www.w3.org/1999/xlink">
    <!-- Generator: Sketch 50.2 (55047) - http://www.bohemiancoding.com/sketch -->
    <title>kanso/icons/pdf-download</title>
    <desc>Created with Sketch.</desc>
    <defs></defs>
    <g id="Website-V03" stroke="none" stroke-width="1" fill="none" fill-rule="evenodd">
        <g id="icons-kanso-&amp;-flavis" transform="translate(-1112.000000, -162.000000)" fill="#F4773B">
            <g id="pdf-download" transform="translate(1112.000000, 162.000000)">
                <path d="M35.999863,13.484449 L33.1075342,10.237102 L33.8817808,10.237102 C34.2220548,10.237102 34.4982192,9.96322449 34.4982192,9.62485714 L34.4982192,5.63302041 L37.499863,5.63302041 L37.499863,9.62485714 C37.499863,9.96322449 37.7760274,10.237102 38.1163014,10.237102 L38.8921918,10.237102 L35.999863,13.484449 Z M40.8224658,9.37302041 C40.7230137,9.15342857 40.5031507,9.01220408 40.2606849,9.01220408 L38.7331507,9.01220408 L38.7331507,5.02036735 C38.7331507,4.682 38.4569863,4.40812245 38.1167123,4.40812245 L33.8821918,4.40812245 C33.5419178,4.40812245 33.2657534,4.682 33.2657534,5.02036735 L33.2657534,9.01220408 L31.7394521,9.01220408 C31.4969863,9.01220408 31.2771233,9.15342857 31.1776712,9.37302041 C31.0778082,9.59261224 31.1168493,9.8497551 31.2779452,10.0301633 L35.5383562,14.8138367 C35.6550685,14.9452653 35.8231507,15.0203673 35.999863,15.0203673 C36.1765753,15.0203673 36.3446575,14.9452653 36.4617808,14.8138367 L40.7221918,10.0301633 C40.8828767,9.8497551 40.9223288,9.59261224 40.8224658,9.37302041 Z" id="Fill-4"></path>
                <path d="M35.3834247,41.2210204 C35.3834247,42.0087755 34.7382192,42.6495918 33.9450685,42.6495918 L13.6712329,42.6495918 C12.8780822,42.6495918 12.2328767,42.0087755 12.2328767,41.2210204 L12.2328767,12.5536735 C12.2328767,11.7655102 12.8780822,11.125102 13.6712329,11.125102 L25.4760274,11.125102 C25.9626027,11.125102 26.5712329,11.2777551 27.1416438,11.5157143 C27.0035616,11.7695918 26.9147945,12.1079592 26.9147945,12.5536735 L26.9147945,16.8834694 C26.9147945,18.3463265 28.1131507,19.5365306 29.5860274,19.5365306 L33.9450685,19.5365306 C34.4168493,19.5365306 34.7489041,19.4410204 34.9905479,19.3108163 C35.229726,19.8773469 35.3834247,20.4818367 35.3834247,20.965102 L35.3834247,41.2210204 Z M34.369589,18.2532653 C34.3038356,18.2789796 34.1739726,18.3120408 33.9446575,18.3120408 L29.5856164,18.3120408 C28.7924658,18.3120408 28.1472603,17.6712245 28.1472603,16.8834694 L28.1472603,12.5536735 C28.1472603,12.3259184 28.1805479,12.1969388 28.2060274,12.1312245 C28.2393151,12.1459184 28.2865753,12.1720408 28.3465753,12.214898 C28.4168493,12.272449 28.4887671,12.3295918 28.5479452,12.3883673 L34.1106849,17.9136735 C34.1127397,17.9161224 34.1143836,17.9181633 34.1164384,17.9202041 C34.1727397,17.9765306 34.2273973,18.0438776 34.2820548,18.1095918 C34.3272603,18.1708163 34.3547945,18.2193878 34.369589,18.2532653 Z M34.9831507,17.0479592 L29.42,11.5230612 C28.5039726,10.6132653 26.7717808,9.90061224 25.4764384,9.90061224 L13.6712329,9.90061224 C12.1983562,9.90061224 11,11.0908163 11,12.5536735 L11,41.2210204 C11,42.6838776 12.1983562,43.8740816 13.6712329,43.8740816 L33.9450685,43.8740816 C35.4179452,43.8740816 36.6163014,42.6838776 36.6167123,41.2210204 L36.6167123,20.965102 C36.6167123,19.8042857 36.0306849,18.2965306 35.2441096,17.3434694 C35.170137,17.247551 35.0850685,17.1495918 34.9831507,17.0479592 Z" id="Fill-1"></path>
                <path d="M19.7936575,36.2931429 C19.6974932,36.4217143 19.5577671,36.5147755 19.3753014,36.5715102 C19.1924247,36.6278367 18.9647534,36.6564082 18.6922877,36.6564082 L17.9139315,36.6564082 L17.9139315,34.9249796 L18.6922877,34.9249796 C19.2084521,34.9249796 19.5495479,35.0090612 19.7159863,35.1764082 C19.8635205,35.3331429 19.9374932,35.5368163 19.9374932,35.7870204 C19.9374932,35.9955918 19.889411,36.1645714 19.7936575,36.2931429 M20.588863,34.4845714 C20.419137,34.3355918 20.2169452,34.2282449 19.9839315,34.1641633 C19.7480411,34.0972245 19.4102329,34.0637551 18.9721507,34.0637551 L17.4902329,34.0637551 C17.2358493,34.0637551 17.0505068,34.1176327 16.9337945,34.2257959 C16.8174932,34.3339592 16.758726,34.5143673 16.758726,34.7670204 L16.758726,39.133551 C16.758726,39.3604898 16.8121507,39.5319184 16.918589,39.6494694 C17.0246164,39.7666122 17.1647534,39.8249796 17.338589,39.8249796 C17.5042055,39.8249796 17.6418767,39.7657959 17.7507808,39.6474286 C17.8596849,39.5290612 17.9139315,39.3551837 17.9139315,39.1253878 L17.9139315,37.5221224 L18.9721507,37.5221224 C19.6806438,37.5221224 20.2136575,37.3731429 20.5711918,37.076 C20.929137,36.7780408 21.1083151,36.3413061 21.1083151,35.7641633 C21.1083151,35.493551 21.0643425,35.2494694 20.9759863,35.033551 C20.8880411,34.8172245 20.759,34.6343673 20.588863,34.4845714" id="Fill-7"></path>
                <path d="M25.2053699,38.5496327 C25.1198904,38.6247347 25.0187945,38.6822857 24.9020822,38.7239184 C24.7853699,38.7647347 24.6723562,38.7908571 24.5634521,38.8006531 C24.4545479,38.8112653 24.304137,38.8161633 24.1122192,38.8161633 L23.2364658,38.8161633 L23.2364658,34.9716735 L23.9992055,34.9716735 C24.3522192,34.9716735 24.6530411,35.0096327 24.9020822,35.0859592 C25.1503014,35.1618776 25.3603014,35.3390204 25.5304384,35.6169796 C25.6997534,35.8949388 25.7848219,36.3137143 25.7848219,36.8733061 C25.7848219,37.6659592 25.5912603,38.2251429 25.2053699,38.5496327 M26.0655068,34.5777959 C25.8370137,34.3790204 25.5830411,34.2439184 25.3027671,34.1716735 C25.0233151,34.0998367 24.6863288,34.0639184 24.2950959,34.0639184 L22.7897534,34.0639184 C22.5403014,34.0639184 22.3603014,34.1190204 22.2485205,34.2296327 C22.1371507,34.3402449 22.0812603,34.5194286 22.0812603,34.7667755 L22.0812603,38.9206531 C22.0812603,39.1035102 22.0976986,39.2524898 22.1301644,39.3671837 C22.1622192,39.4810612 22.2316712,39.5700408 22.3376986,39.6333061 C22.4445479,39.6969796 22.6027671,39.7284082 22.8127671,39.7284082 L24.3181096,39.7284082 C24.5803014,39.7284082 24.8153699,39.7116735 25.024137,39.6782041 C25.2329041,39.6447347 25.4285205,39.5863673 25.6093425,39.5043265 C25.7918082,39.4218776 25.9590685,39.3120816 26.1115342,39.1753469 C26.3067397,38.9982041 26.4653699,38.7961633 26.5898904,38.5712653 C26.7152329,38.345551 26.8064658,38.092898 26.8668767,37.8116735 C26.9260548,37.5312653 26.9564658,37.2202449 26.9564658,36.8802449 C26.9564658,35.850449 26.6589315,35.0826939 26.0655068,34.5777959" id="Fill-9"></path>
                <path d="M31.379,34.0637959 L28.6555753,34.0637959 C28.4928356,34.0637959 28.3584521,34.0874694 28.2536575,34.1352245 C28.1484521,34.1829796 28.0711918,34.258898 28.0218767,34.3625714 C27.9725616,34.4670612 27.9479041,34.6017551 27.9479041,34.7670612 L27.9479041,39.1250204 C27.9479041,39.3601224 28.0017397,39.5348163 28.109411,39.6507347 C28.2170822,39.7670612 28.3568082,39.8246122 28.5281781,39.8246122 C28.6962603,39.8246122 28.8351644,39.7674694 28.9424247,39.6527755 C29.0500959,39.538898 29.1039315,39.3625714 29.1039315,39.1254286 L29.1039315,37.2593061 L31.0066712,37.2593061 C31.1809178,37.2593061 31.3111918,37.2201224 31.3995479,37.1433878 C31.4879041,37.0658367 31.5318767,36.9617551 31.5318767,36.8299184 C31.5318767,36.6993061 31.488726,36.594 31.4016027,36.5156327 C31.3144795,36.436449 31.1829726,36.3976735 31.0066712,36.3976735 L29.1039315,36.3976735 L29.1039315,34.9486939 L31.3798219,34.9486939 C31.5639315,34.9486939 31.6999589,34.9078776 31.7895479,34.8270612 C31.879137,34.7458367 31.9239315,34.6376735 31.9239315,34.5042041 C31.9239315,34.3727755 31.879137,34.2666531 31.7895479,34.1854286 C31.6999589,34.1042041 31.5631096,34.0637959 31.379,34.0637959" id="Fill-11"></path>
                <path d="M31.8176575,27.1310204 C31.7276575,27.2853061 31.4083425,27.4514286 30.9197123,27.4514286 L30.9193014,27.4514286 C30.7791644,27.4514286 30.6308082,27.4371429 30.4808082,27.4097959 C29.8224521,27.2889796 29.0416301,26.8102041 28.1108082,25.9534694 C30.5856027,26.0265306 31.5949178,26.6122449 31.8020411,26.9677551 C31.8575205,27.0628571 31.8340959,27.1020408 31.8176575,27.1310204 M25.0701233,24.8514286 C24.3303973,24.9220408 23.0502603,25.0828571 21.6377945,25.4302041 C22.2073836,24.3130612 22.7313562,23.177551 23.1616301,22.1269388 C23.3309452,22.3371429 23.5060137,22.5559184 23.6851918,22.7804082 C24.203411,23.4293878 24.7688904,24.1371429 25.3565616,24.8253061 C25.2620411,24.8334694 25.1658767,24.842449 25.0701233,24.8514286 M22.3935479,15.5914286 C22.4921781,15.2902041 22.6339589,15.0828571 22.772863,15.0367347 C22.8036849,15.0265306 22.8238219,15.024898 22.832863,15.024898 C22.8419041,15.024898 22.853,15.024898 22.883,15.0579592 C22.9898493,15.1714286 23.3256027,15.7032653 23.1751918,17.7640816 C23.1443699,18.1877551 23.0272466,18.7440816 22.8312192,19.4061224 C22.2151918,18.0089796 22.0976575,16.4926531 22.3935479,15.5914286 M16.6105342,30.7269388 C16.3660137,30.8853061 16.1198493,30.9763265 15.9357397,30.9763265 C15.8757397,30.9763265 15.7997123,30.9673469 15.7816301,30.9244898 C15.7212192,30.7763265 15.7919041,30.1159184 16.8776575,29.0620408 C17.4308082,28.5261224 18.1413562,28.0493878 19.0023151,27.6363265 C18.033274,29.2232653 17.1472466,30.3787755 16.6105342,30.7269388 M27.5880685,24.7212245 C27.3706712,24.7212245 27.1454658,24.7244898 26.9116301,24.7318367 C26.1209452,23.8591837 25.343411,22.8857143 24.6513562,22.0191837 C24.3266986,21.6130612 24.0176575,21.2257143 23.7271096,20.8734694 C23.7082055,20.8502041 23.6888904,20.8269388 23.6699863,20.8032653 C24.1043699,19.5816327 24.3517671,18.5902041 24.4056027,17.8518367 C24.5408082,15.9995918 24.3386164,14.8126531 23.7866986,14.2232653 C23.4205342,13.8322449 22.8953288,13.7036735 22.3808082,13.8755102 C22.0121781,13.9983673 21.5112192,14.3297959 21.2219041,15.2110204 C20.7747808,16.5734694 21.0106712,19.0118367 22.2887534,20.9869388 C21.7117671,22.4963265 20.8886164,24.2620408 19.9939589,25.9110204 C18.3119041,26.4922449 16.9746438,27.2567347 16.0171096,28.1857143 C14.7940959,29.3718367 14.2919041,30.5383673 14.6403973,31.3865306 C14.8491644,31.8967347 15.3336849,32.2012245 15.9357397,32.2012245 C16.3656027,32.2012245 16.8316301,32.0461224 17.2857397,31.7522449 C18.4861507,30.9730612 20.0958767,28.2632653 20.8438219,26.9216327 C22.5821781,26.377551 24.2991644,26.155102 25.1888904,26.0702041 C25.603137,26.0302041 26.0066986,26 26.393,25.9791837 C27.9024521,27.5689796 29.1349178,28.4081633 30.2576575,28.6138776 C30.4816301,28.655102 30.7047808,28.6759184 30.9201233,28.6759184 L30.9205342,28.6759184 C31.8114932,28.6759184 32.5458767,28.3273469 32.8857397,27.7432653 C33.1372466,27.3106122 33.1314932,26.804898 32.8705342,26.3555102 C32.2573836,25.3016327 30.3817671,24.7212245 27.5880685,24.7212245" id="Fill-13"></path>
            </g>
        </g>
    </g>
</svg>