<?xml version="1.0" encoding="UTF-8"?>
<svg width="40px" height="100px" viewBox="0 0 40 100" version="1.1" xmlns="http://www.w3.org/2000/svg" xmlns:xlink="http://www.w3.org/1999/xlink">
    <!-- Generator: Sketch 50.2 (55047) - http://www.bohemiancoding.com/sketch -->
    <title>kanso/icons/green-number/phone</title>
    <desc>Created with Sketch.</desc>
    <defs></defs>
    <g id="Website-V03" stroke="none" stroke-width="1" fill="none" fill-rule="evenodd">
        <g id="icons-kanso-&amp;-flavis" transform="translate(-1134.000000, -487.000000)" fill="#FFFFFF" fill-rule="nonzero">
            <g id="green_number_phone" transform="translate(1124.000000, 487.000000)">
                <path d="M19.0396913,45.3332055 C22.7684341,52.6612209 28.7629061,58.6556929 36.1038686,62.3844358 L41.800559,56.6747983 C42.5126453,55.962712 43.5354602,55.7555596 44.4288048,56.0403941 C47.3289382,56.9984739 50.4491709,57.5163548 53.6729798,57.5163548 C55.1100994,57.5163548 56.2623845,58.66864 56.2623845,60.1057596 L56.2623845,69.1686762 C56.2623845,70.6057958 55.1100994,71.758081 53.6729798,71.758081 C29.3584692,71.758081 9.65309908,52.0527108 9.65309908,27.7382002 C9.65309908,26.3010806 10.8183312,25.1487955 12.2425038,25.1487955 L21.3054204,25.1487955 C22.7425401,25.1487955 23.8948252,26.3010806 23.8948252,27.7382002 C23.8948252,30.9620092 24.4127061,34.0822419 25.3707859,36.9823752 C25.6556204,37.8757198 25.448468,38.8985347 24.7363817,39.610621 L19.0396913,45.3332055 Z" id="Shape" transform="translate(32.957742, 48.453438) rotate(-315.000000) translate(-32.957742, -48.453438) "></path>
            </g>
        </g>
    </g>
</svg>