<?xml version="1.0" encoding="UTF-8"?>
<svg width="40px" height="40px" viewBox="0 0 40 40" version="1.1" xmlns="http://www.w3.org/2000/svg" xmlns:xlink="http://www.w3.org/1999/xlink">
    <!-- Generator: Sketch 50.2 (55047) - http://www.bohemiancoding.com/sketch -->
    <title>kanso/icons/social/pinterest</title>
    <desc>Created with Sketch.</desc>
    <defs></defs>
    <g id="Website-V03" stroke="none" stroke-width="1" fill="none" fill-rule="evenodd">
        <g id="icons-kanso-&amp;-flavis" transform="translate(-848.000000, -321.000000)" fill="#373E46" fill-rule="nonzero">
            <g id="social-pinterest" transform="translate(848.000000, 321.000000)">
                <path d="M20.0005879,10 C14.4781562,10 10,14.47698 10,20.0005879 C10,24.0941967 12.4625154,27.6127475 15.9869467,29.1591696 C15.9587229,28.46181 15.9822425,27.6221554 16.1598167,26.8624683 C16.3526783,26.0510379 17.4463454,21.4141237 17.4463454,21.4141237 C17.4463454,21.4141237 17.1276533,20.7755629 17.1276533,19.8312458 C17.1276533,18.3495033 17.9872992,17.2429 19.0562708,17.2429 C19.9653083,17.2429 20.4051275,17.9261479 20.4051275,18.7446346 C20.4051275,19.6583758 19.8218379,21.0260479 19.5219617,22.2925854 C19.2714763,23.3545012 20.0535075,24.2188513 21.1001354,24.2188513 C22.9946492,24.2188513 24.2705946,21.7857354 24.2705946,18.9022167 C24.2705946,16.7113542 22.7947317,15.0708533 20.1099546,15.0708533 C17.0770858,15.0708533 15.1872758,17.332275 15.1872758,19.8582937 C15.1872758,20.7308754 15.4436408,21.3447404 15.8458283,21.8198388 C16.0316342,22.0397483 16.0563296,22.1267712 15.9892983,22.3784325 C15.9422592,22.5607104 15.8317163,23.0052333 15.7858529,23.180455 C15.7188217,23.4332921 15.5142,23.5250192 15.2860587,23.43094 C13.8878108,22.8605867 13.2374904,21.3306288 13.2374904,19.6101604 C13.2374904,16.7701533 15.6329746,13.362145 20.3839596,13.362145 C24.2023871,13.362145 26.71547,16.1268888 26.71547,19.0915504 C26.71547,23.0146408 24.5351912,25.9451992 21.3188687,25.9451992 C20.2404892,25.9451992 19.2244371,25.36191 18.876345,24.6998296 C18.876345,24.6998296 18.2954079,27.0035867 18.173105,27.4481096 C17.9614275,28.2183808 17.5463046,28.9898279 17.1664608,29.5895808 C18.0660904,29.8553538 19.0162875,30 20.0005879,30 C25.52302,30 30,25.52302 30,20.0005879 C30,14.47698 25.52302,10 20.0005879,10" id="Pinterest"></path>
            </g>
        </g>
    </g>
</svg>