<?xml version="1.0" encoding="UTF-8"?>
<svg width="103px" height="24px" viewBox="0 0 103 24" version="1.1" xmlns="http://www.w3.org/2000/svg" xmlns:xlink="http://www.w3.org/1999/xlink">
    <title>Dr-Schaer</title>
    <defs></defs>
    <g>
        <g>
            <path d="M13.5,19.1 C12.2,20.8 10.4,22 8.4,22.1 C7.6,22.2 6.7,22.2 5.4,22.2 L0.3,22.2 L0.3,1.4 L4.5,1.4 C5.7,1.4 7.3,1.5 8.1,1.5 C9.8,1.7 11.4,2.3 12.6,3.5 C14.5,5.4 15.5,8 15.5,11.8 C15.6,14.7 14.9,17.2 13.5,19.1 M9.9,6.5 C9.2,5.3 8.3,4.8 6.6,4.8 L4.7,4.8 L4.7,18.9 L7,18.9 C9.7,18.9 11,16.8 11,12.4 C10.9,9.9 10.7,7.8 9.9,6.5" fill="#898989"></path>
            <path d="M25.9,10.4 C25.5,10.2 25.2,10.1 24.7,10.1 C23.8,10.1 23,10.5 22.3,11.4 L22.3,22.2 L18.3,22.2 L18.3,12 C18.3,10 18.1,8.4 17.7,7.5 L21.3,6.6 C21.6,7.2 21.9,7.9 21.9,8.8 C22.8,7.6 24,6.6 25.5,6.6 C26.1,6.6 26.4,6.7 27,6.9 L25.9,10.4 Z" fill="#898989"></path>
            <path d="M37.7,22.7 C35.3,22.7 32.7,22 30.6,20.8 L32.2,17.5 C34.1,18.5 35.8,19.2 37.9,19.2 C40.3,19.2 41.6,18.2 41.6,16.3 C41.6,15 40.7,14.1 38.9,13.6 L36.6,13 C34.6,12.4 33.2,11.6 32.5,10.4 C31.9,9.5 31.6,8.4 31.6,7.3 C31.6,3.5 34.6,0.9 39,0.9 C41.6,0.9 44.1,1.7 45.9,3 L43.9,6 C42,4.8 40.6,4.4 39.1,4.4 C37.4,4.4 36.2,5.4 36.2,6.8 C36.2,7.8 36.8,8.4 38.5,8.9 L41,9.6 C44.4,10.5 46.2,12.7 46.2,15.8 C46.3,19.9 42.9,22.7 37.7,22.7" fill="#FFFFFF"></path>
            <path d="M58.8,21.6 C57.7,22.2 56.5,22.5 55.1,22.5 C50.9,22.5 48.4,19.6 48.4,14.6 C48.4,11 49.7,8.7 51.5,7.5 C52.5,6.8 54,6.3 55.3,6.3 C56.3,6.3 57.4,6.5 58.3,7 C58.9,7.3 59.1,7.5 59.8,8 L57.9,10.6 C57.1,9.8 56.2,9.4 55.5,9.4 C53.7,9.4 52.9,11 52.9,14.5 C52.9,16.5 53.2,17.7 53.7,18.3 C54.1,18.8 54.8,19.2 55.5,19.2 C56.4,19.2 57.2,18.8 58.2,17.9 L58.4,17.7 L60.2,20.1 C59.6,21.1 59.3,21.3 58.8,21.6" fill="#FFFFFF"></path>
            <path d="M71.4,22.2 L71.4,12 C71.4,10.5 71,9.9 69.8,9.9 C68.8,9.9 67.5,10.5 66.7,11.3 L66.7,22.3 L62.6,22.3 L62.6,4.5 C62.6,3 62.5,1.6 62.3,1 L66.4,0.1 C66.6,0.9 66.7,2.4 66.7,3.8 L66.7,6.8 C66.7,7.3 66.6,7.9 66.6,8.1 C67.6,7.1 69.4,6.5 70.9,6.5 C72.8,6.5 74.4,7.3 74.9,8.7 C75.2,9.6 75.3,10.1 75.3,11.6 L75.3,22.3 C75.3,22.2 71.4,22.2 71.4,22.2 Z" fill="#FFFFFF"></path>
            <path d="M101.4,10.4 C101,10.2 100.7,10.1 100.2,10.1 C99.3,10.1 98.5,10.5 97.8,11.4 L97.8,22.2 L93.8,22.2 L93.8,12 C93.8,10 93.6,8.4 93.2,7.5 L96.8,6.6 C97.1,7.2 97.4,7.9 97.4,8.8 C98.3,7.6 99.5,6.6 101,6.6 C101.6,6.6 101.9,6.7 102.5,6.9 L101.4,10.4 Z" fill="#FFFFFF"></path>
            <path d="M89.2,23 C88.3,22.6 87.5,22 87,21.1 C86.4,21.6 86.4,21.7 86.1,21.9 C85.3,22.4 84.3,22.7 83,22.7 C79.6,22.7 77.8,21 77.8,17.9 C77.8,14.3 80.3,12.7 85.1,12.7 C85.4,12.7 85.6,12.7 86,12.8 L86,12.2 C86,10.5 85.7,9.9 84.2,9.9 C82.9,9.9 81.4,10.5 79.8,11.6 L78.1,8.7 C79.1,8.1 79.5,7.9 80.6,7.4 C82.1,6.8 83.4,6.5 84.8,6.5 C87.4,6.5 89.1,7.4 89.7,9.2 C89.9,9.8 90,10.3 90,11.9 L89.9,17 C89.8,18.6 90,19.4 91.4,20.4 L89.2,23 Z M85.8,15.5 C83,15.5 82.1,16 82.1,17.8 C82.1,19 82.9,19.8 83.8,19.8 C84.6,19.8 85.3,19.4 85.9,18.8 L86,15.5 L85.8,15.5 L85.8,15.5 Z" fill="#FFFFFF"></path>
        </g>
    </g>
    <path d="M29.2,2.4 C29.2,3.6 28.2,4.6 27,4.6 C25.8,4.6 24.8,3.6 24.8,2.4 C24.8,1.2 25.8,0.2 27,0.2 C28.2,0.3 29.2,1.3 29.2,2.4" id="Shape" fill="#F7C834"></path>
    <path d="M83.8,2.4 C83.8,3.6 82.8,4.6 81.6,4.6 C80.4,4.6 79.4,3.6 79.4,2.4 C79.4,1.2 80.4,0.2 81.6,0.2 C82.8,0.3 83.8,1.2 83.8,2.4" id="Shape" fill="#AB2936"></path>
    <path d="M89.8,2.4 C89.8,3.6 88.8,4.6 87.6,4.6 C86.4,4.6 85.4,3.6 85.4,2.4 C85.4,1.2 86.4,0.2 87.6,0.2 C88.9,0.3 89.8,1.2 89.8,2.4" id="Shape" fill="#AB2936"></path>
</svg>
