<?xml version="1.0" encoding="UTF-8"?>
<svg width="30px" height="30px" viewBox="0 0 30 30" version="1.1" xmlns="http://www.w3.org/2000/svg" xmlns:xlink="http://www.w3.org/1999/xlink">
    <!-- Generator: Sketch 50.2 (55047) - http://www.bohemiancoding.com/sketch -->
    <title>flavis/icons/shop-white</title>
    <desc>Created with Sketch.</desc>
    <defs></defs>
    <g id="Website-V03" stroke="none" stroke-width="1" fill="none" fill-rule="evenodd">
        <g id="icons-kanso-&amp;-flavis" transform="translate(-1182.000000, -518.000000)" fill="#FFFFFF" fill-rule="nonzero">
            <g id="ic_shop" transform="translate(1182.000000, 518.000000)">
                <path d="M11,20.3333333 C10.0833333,20.3333333 9.34166667,21.0833333 9.34166667,22 C9.34166667,22.9166667 10.0833333,23.6666667 11,23.6666667 C11.9166667,23.6666667 12.6666667,22.9166667 12.6666667,22 C12.6666667,21.0833333 11.9166667,20.3333333 11,20.3333333 Z M6,7 L6,8.66666667 L7.66666667,8.66666667 L10.6666667,14.9916667 L9.54166667,17.0333333 C9.40833333,17.2666667 9.33333333,17.5416667 9.33333333,17.8333333 C9.33333333,18.75 10.0833333,19.5 11,19.5 L21,19.5 L21,17.8333333 L11.35,17.8333333 C11.2333333,17.8333333 11.1416667,17.7416667 11.1416667,17.625 L11.1666667,17.525 L11.9166667,16.1666667 L18.125,16.1666667 C18.75,16.1666667 19.3,15.825 19.5833333,15.3083333 L22.5666667,9.9 C22.6333333,9.78333333 22.6666667,9.64166667 22.6666667,9.5 C22.6666667,9.04166667 22.2916667,8.66666667 21.8333333,8.66666667 L9.50833333,8.66666667 L8.725,7 L6,7 Z M19.3333333,20.3333333 C18.4166667,20.3333333 17.675,21.0833333 17.675,22 C17.675,22.9166667 18.4166667,23.6666667 19.3333333,23.6666667 C20.25,23.6666667 21,22.9166667 21,22 C21,21.0833333 20.25,20.3333333 19.3333333,20.3333333 Z" id="Shape"></path>
            </g>
        </g>
    </g>
</svg>