<?xml version="1.0" encoding="UTF-8"?>
<svg width="581px" height="299px" viewBox="0 0 581 299" version="1.1" xmlns="http://www.w3.org/2000/svg" xmlns:xlink="http://www.w3.org/1999/xlink">
    <!-- Generator: Sketch 51.3 (57544) - http://www.bohemiancoding.com/sketch -->
    <title>Fill 1</title>
    <desc>Created with Sketch.</desc>
    <defs></defs>
    <g id="Symbols" stroke="none" stroke-width="1" fill="none" fill-rule="evenodd" stroke-opacity="0.5">
        <g id="slider/header-tramsparent-(2)" transform="translate(-572.000000, -151.000000)" fill="#F9AF45" stroke="#F9AF45" stroke-width="40">
            <g id="Oval">
                <path d="M1008.21925,641.981515 L1008.22024,641.980943 C930.889362,686.388292 859.82906,686.785179 799.154363,647.696429 C748.38327,614.987925 707.270488,556.024456 676.951537,479.615089 C651.336369,415.060124 634.764776,340.474418 630.055316,274.833037 C627.83895,243.9409 628.402043,216.417806 631.775918,194.796233 C635.779516,169.139053 643.541449,151.058311 657.847263,142.113492 C672.07032,133.220924 692.027914,134.167961 718.140745,141.700133 C740.056015,148.021531 766.68071,159.354838 795.676676,174.606873 C856.640674,206.674266 922.499675,252.912191 975.475588,302.191705 C1037.77364,360.142905 1079.50782,419.086903 1092.55532,474.271157 C1108.51348,541.766011 1080.96812,600.21094 1008.21925,641.981515 Z" id="Fill-1" transform="translate(862.822353, 405.990138) rotate(90.000000) translate(-862.822353, -405.990138) "></path>
            </g>
        </g>
    </g>
</svg>