<?xml version="1.0" encoding="UTF-8"?>
<svg width="40px" height="40px" viewBox="0 0 40 40" version="1.1" xmlns="http://www.w3.org/2000/svg" xmlns:xlink="http://www.w3.org/1999/xlink">
    <!-- Generator: Sketch 50.2 (55047) - http://www.bohemiancoding.com/sketch -->
    <title>kanso/icons/social/twitter</title>
    <desc>Created with Sketch.</desc>
    <defs></defs>
    <g id="Website-V03" stroke="none" stroke-width="1" fill="none" fill-rule="evenodd">
        <g id="icons-kanso-&amp;-flavis" transform="translate(-848.000000, -371.000000)" fill="#373E46" fill-rule="nonzero">
            <g id="social-twitter" transform="translate(848.000000, 371.000000)">
                <path d="M32,12.5938227 L29.4285714,13.0286053 L31.1428571,10.8546923 L28.1428571,11.7242575 C24.2857143,7.37643139 18.2857143,12.1590401 20,16.0720836 C13.1428571,16.0720836 9.71428571,10.8546923 9.71428571,10.8546923 C9.71428571,10.8546923 7.14285714,14.7677357 11.4285714,17.811214 L8.85714286,16.9416488 C8.85714286,19.5503444 10.5714286,21.2894749 13.5714286,22.1590401 L10.5714286,22.1590401 C12.2857143,25.637301 15.2857143,25.637301 15.2857143,25.637301 C15.2857143,25.637301 12.7142857,27.811214 8,27.811214 C22.1428571,34.7677357 30.7142857,21.7242575 29.4285714,14.7677357 L32,12.5938227 Z" id="Shape"></path>
            </g>
        </g>
    </g>
</svg>